<svg width="24" height="24" viewBox="0 0 24 24" fill="none" xmlns="http://www.w3.org/2000/svg">
<path d="M2.39352 6.2608L4.15653 6.2608L4.15653 5.48429C4.15653 5.29159 4.29189 5.12638 4.47858 5.09155C4.8022 5.03084 5.15322 5.00016 5.52155 5.00016C6.79385 5.00016 8.30684 5.35471 10.0183 6.05422C10.9523 6.43593 11.6802 6.81412 12.0117 6.99435C12.3433 6.81412 13.071 6.43593 14.0051 6.05422C15.7167 5.35455 17.2297 5 18.502 5C18.8703 5 19.2213 5.03068 19.5449 5.09139C19.7316 5.12638 19.867 5.2916 19.867 5.48413L19.867 6.26064L21.6065 6.26064C21.8239 6.26064 22 6.43943 22 6.66009L22 19.6006C22 19.8212 21.8239 20 21.6065 20L12.0133 20L12.0118 20L12.0104 20L2.39352 20C2.17614 20 2 19.8212 2 19.6006L2 6.66025C2 6.43959 2.17614 6.2608 2.39352 6.2608ZM20.4023 7.84917L19.8672 7.84917L19.8672 17.3729C19.8672 17.4926 19.8147 17.606 19.7236 17.6819C19.6325 17.7578 19.513 17.7883 19.3975 17.7649C19.3934 17.7641 18.9811 17.684 18.2597 17.684C17.2703 17.684 15.8327 17.8278 14.0775 18.4116L20.4023 18.4116L20.4023 7.84917ZM3.62135 18.4116L9.94637 18.4116C8.19114 17.8278 6.75356 17.684 5.76411 17.684C5.04272 17.684 4.63047 17.7641 4.62717 17.7647C4.51163 17.7882 4.39169 17.7578 4.30055 17.6819C4.20942 17.606 4.15653 17.4927 4.15653 17.3731L4.15653 7.84917L3.62135 7.84917L3.62135 18.4116Z" fill="white"/>
</svg>
