<svg width="150" height="177" viewBox="0 0 150 177" fill="none" xmlns="http://www.w3.org/2000/svg">
<path d="M63.2969 107.375H92.0469L106.5 125.969L120.719 142.531L147.516 176.125H115.953L97.5156 153.469L88.0625 140.031L63.2969 107.375ZM149.938 83C149.938 100.448 146.63 115.292 140.016 127.531C133.453 139.771 124.495 149.12 113.141 155.578C101.839 161.984 89.1302 165.187 75.0156 165.187C60.7969 165.187 48.0365 161.958 36.7344 155.5C25.4323 149.042 16.5 139.693 9.9375 127.453C3.375 115.214 0.0937501 100.396 0.0937501 83C0.0937501 65.5521 3.375 50.7083 9.9375 38.4688C16.5 26.2292 25.4323 16.9062 36.7344 10.5C48.0365 4.04166 60.7969 0.812494 75.0156 0.812494C89.1302 0.812494 101.839 4.04166 113.141 10.5C124.495 16.9062 133.453 26.2292 140.016 38.4688C146.63 50.7083 149.938 65.5521 149.938 83ZM115.641 83C115.641 71.6979 113.948 62.1667 110.562 54.4062C107.229 46.6458 102.516 40.7604 96.4219 36.75C90.3281 32.7396 83.1927 30.7344 75.0156 30.7344C66.8385 30.7344 59.7031 32.7396 53.6094 36.75C47.5156 40.7604 42.776 46.6458 39.3906 54.4062C36.0573 62.1667 34.3906 71.6979 34.3906 83C34.3906 94.3021 36.0573 103.833 39.3906 111.594C42.776 119.354 47.5156 125.24 53.6094 129.25C59.7031 133.26 66.8385 135.266 75.0156 135.266C83.1927 135.266 90.3281 133.26 96.4219 129.25C102.516 125.24 107.229 119.354 110.562 111.594C113.948 103.833 115.641 94.3021 115.641 83Z" fill="#F8F8F8"/>
</svg>
