<svg width="16" height="12" viewBox="0 0 16 12" fill="none" xmlns="http://www.w3.org/2000/svg">
<path fill-rule="evenodd" clip-rule="evenodd" d="M8.01069 0.10791C8.2489 0.245195 8.39471 0.492865 8.39471 0.76018V11.2398C8.39471 11.5071 8.2489 11.7548 8.01069 11.8921C7.77248 12.0294 7.47689 12.0361 7.23222 11.9098L3.34674 9.90406H1.28947C0.853459 9.90406 0.5 9.56371 0.5 9.14388V2.85609C0.5 2.43626 0.853459 2.09591 1.28947 2.09591H3.3468L7.23222 0.090206C7.47689 -0.0360976 7.77248 -0.0293753 8.01069 0.10791ZM3.9318 8.48101L6.81577 9.96975V2.03025L3.91809 3.52607C3.80338 3.58528 3.67523 3.61627 3.54507 3.61627H2.07895V8.3837H3.54504C3.68556 8.3837 3.8175 8.41904 3.9318 8.48101Z" fill="white"/>
<path d="M9.2678 3.46047C9.46306 3.08509 9.93738 2.93319 10.3272 3.12121C11.4873 3.6807 12.3421 4.76813 12.3421 6.08144C12.3421 7.39476 11.4873 8.48218 10.3272 9.04168C9.93738 9.22969 9.46306 9.0778 9.2678 8.70241C9.07254 8.32703 9.23029 7.8703 9.62014 7.68229C10.3478 7.33135 10.7632 6.71711 10.7632 6.08144C10.7632 5.44578 10.3478 4.83153 9.62014 4.48059C9.23029 4.29258 9.07254 3.83586 9.2678 3.46047Z" fill="white"/>
<path d="M11.8769 0.827276C11.4794 0.654818 11.0119 0.825318 10.8328 1.2081C10.6537 1.59088 10.8308 2.04099 11.2283 2.21344C12.8396 2.91244 13.9211 4.39505 13.9211 6.08144C13.9211 7.76784 12.8396 9.25045 11.2283 9.94944C10.8308 10.1219 10.6537 10.572 10.8328 10.9548C11.0119 11.3376 11.4794 11.5081 11.8769 11.3356C13.9998 10.4146 15.5 8.42148 15.5 6.08144C15.5 3.7414 13.9998 1.74824 11.8769 0.827276Z" fill="white"/>
</svg>
