<svg width="133" height="33" viewBox="0 0 133 33" fill="none" xmlns="http://www.w3.org/2000/svg">
<path d="M128.352 18.5945C129.499 16.4849 129.65 13.863 128.564 11.5425C128.503 11.3918 128.413 11.2411 128.352 11.1205C126.723 7.86575 123.131 6.23835 119.721 6.9315C119.48 3.07397 116.281 0 112.357 0C109.521 0 107.046 1.59725 105.809 3.94794C104.571 1.59725 102.096 0 99.2596 0C96.4228 0 93.948 1.59725 92.7107 3.94794C91.4733 1.59725 88.9986 0 86.1618 0C83.3249 0 80.8502 1.59725 79.6129 3.94794C78.3755 1.59725 75.9008 0 73.064 0C70.2271 0 67.7524 1.59725 66.5151 3.94794C65.2777 1.59725 62.803 0 59.9662 0C57.1293 0 54.6547 1.59725 53.4173 3.94794C52.18 1.59725 49.7053 0 46.8684 0C44.0316 0 41.5568 1.59725 40.3195 3.94794C39.0821 1.59725 36.6074 0 33.7706 0C30.9337 0 28.459 1.59725 27.2217 3.94794C25.9843 1.59725 23.5096 0 20.6728 0C16.7495 0 13.5505 3.07397 13.309 6.9315C9.89879 6.23835 6.30745 7.86575 4.67777 11.1205C4.61741 11.2712 4.5269 11.3918 4.46654 11.5425C3.34991 13.8931 3.53096 16.4849 4.67777 18.5945C1.93146 19.7096 0 22.3918 0 25.526C0 29.6548 3.34991 33 7.48447 33H125.516C129.65 33 133 29.6548 133 25.526C133 22.3918 131.069 19.7096 128.322 18.5945H128.352Z" fill="#95C133"/>
</svg>
