<svg width="24" height="24" viewBox="0 0 24 24" fill="none" xmlns="http://www.w3.org/2000/svg">
<mask id="path-1-inside-1_3227_27174" fill="white">
<path fill-rule="evenodd" clip-rule="evenodd" d="M12 22C17.5228 22 22 17.5228 22 12C22 6.47715 17.5228 2 12 2C6.47715 2 2 6.47715 2 12C2 17.5228 6.47715 22 12 22ZM13.165 13.78C13.415 12.85 13.54 12.165 13.54 11.725C13.54 11.275 13.46 10.96 13.3 10.78C11.8 10.78 10.79 10.86 10.27 11.02L10.225 11.275L10.345 11.44C10.605 11.77 10.735 12.12 10.735 12.49C10.735 12.73 10.61 13.3 10.36 14.2C10.12 15.09 10 15.755 10 16.195C10 16.625 10.115 16.955 10.345 17.185C10.585 17.415 10.91 17.53 11.32 17.53C11.73 17.53 12.185 17.43 12.685 17.23C13.195 17.03 13.62 16.8 13.96 16.54L13.69 15.79L13.555 15.85C13.265 15.95 13.065 16 12.955 16C12.845 16 12.79 15.86 12.79 15.58C12.79 15.3 12.915 14.7 13.165 13.78ZM11.35 9.25C11.61 9.49 11.965 9.61 12.415 9.61C12.875 9.61 13.255 9.47 13.555 9.19C13.865 8.91 14.02 8.58 14.02 8.2C14.02 7.82 13.895 7.525 13.645 7.315C13.395 7.105 13.045 7 12.595 7C12.145 7 11.76 7.13 11.44 7.39C11.13 7.64 10.975 7.955 10.975 8.335C10.975 8.705 11.1 9.01 11.35 9.25Z"/>
</mask>
<path fill-rule="evenodd" clip-rule="evenodd" d="M12 22C17.5228 22 22 17.5228 22 12C22 6.47715 17.5228 2 12 2C6.47715 2 2 6.47715 2 12C2 17.5228 6.47715 22 12 22ZM13.165 13.78C13.415 12.85 13.54 12.165 13.54 11.725C13.54 11.275 13.46 10.96 13.3 10.78C11.8 10.78 10.79 10.86 10.27 11.02L10.225 11.275L10.345 11.44C10.605 11.77 10.735 12.12 10.735 12.49C10.735 12.73 10.61 13.3 10.36 14.2C10.12 15.09 10 15.755 10 16.195C10 16.625 10.115 16.955 10.345 17.185C10.585 17.415 10.91 17.53 11.32 17.53C11.73 17.53 12.185 17.43 12.685 17.23C13.195 17.03 13.62 16.8 13.96 16.54L13.69 15.79L13.555 15.85C13.265 15.95 13.065 16 12.955 16C12.845 16 12.79 15.86 12.79 15.58C12.79 15.3 12.915 14.7 13.165 13.78ZM11.35 9.25C11.61 9.49 11.965 9.61 12.415 9.61C12.875 9.61 13.255 9.47 13.555 9.19C13.865 8.91 14.02 8.58 14.02 8.2C14.02 7.82 13.895 7.525 13.645 7.315C13.395 7.105 13.045 7 12.595 7C12.145 7 11.76 7.13 11.44 7.39C11.13 7.64 10.975 7.955 10.975 8.335C10.975 8.705 11.1 9.01 11.35 9.25Z" fill="white"/>
<path d="M13.165 13.78L14.13 14.0422L14.1307 14.0396L13.165 13.78ZM13.3 10.78L14.0474 10.1156L13.7491 9.78H13.3V10.78ZM10.27 11.02L9.97591 10.0642L9.39148 10.244L9.28522 10.8462L10.27 11.02ZM10.225 11.275L9.24022 11.1012L9.16639 11.5196L9.41626 11.8632L10.225 11.275ZM10.345 11.44L9.53626 12.0282L9.54759 12.0437L9.55951 12.0589L10.345 11.44ZM10.36 14.2L9.39645 13.9323L9.39449 13.9396L10.36 14.2ZM10.345 17.185L9.6379 17.8921L9.64542 17.8996L9.6531 17.907L10.345 17.185ZM12.685 17.23L12.3199 16.299L12.3136 16.3015L12.685 17.23ZM13.96 16.54L14.5675 17.3344L15.1488 16.8898L14.9009 16.2013L13.96 16.54ZM13.69 15.79L14.6309 15.4513L14.2666 14.4394L13.2839 14.8762L13.69 15.79ZM13.555 15.85L13.881 16.7954L13.9217 16.7813L13.9611 16.7638L13.555 15.85ZM11.35 9.25L10.6575 9.97139L10.6645 9.97817L10.6717 9.9848L11.35 9.25ZM13.555 9.19L12.8847 8.4479L12.8787 8.45337L12.8727 8.45894L13.555 9.19ZM11.44 7.39L12.0678 8.16842L12.0706 8.16611L11.44 7.39ZM21 12C21 16.9706 16.9706 21 12 21V23C18.0751 23 23 18.0751 23 12H21ZM12 3C16.9706 3 21 7.02944 21 12H23C23 5.92487 18.0751 1 12 1V3ZM3 12C3 7.02944 7.02944 3 12 3V1C5.92487 1 1 5.92487 1 12H3ZM12 21C7.02944 21 3 16.9706 3 12H1C1 18.0751 5.92487 23 12 23V21ZM12.54 11.725C12.54 12.0235 12.4469 12.5993 12.1993 13.5204L14.1307 14.0396C14.3831 13.1007 14.54 12.3065 14.54 11.725H12.54ZM12.5526 11.4444C12.4957 11.3803 12.497 11.3433 12.5108 11.3974C12.5242 11.4503 12.54 11.5537 12.54 11.725H14.54C14.54 11.2178 14.4621 10.5822 14.0474 10.1156L12.5526 11.4444ZM10.5641 11.9758C10.9195 11.8664 11.783 11.78 13.3 11.78V9.78C11.817 9.78 10.6605 9.85359 9.97591 10.0642L10.5641 11.9758ZM11.2098 11.4488L11.2548 11.1938L9.28522 10.8462L9.24022 11.1012L11.2098 11.4488ZM11.1537 10.8518L11.0337 10.6868L9.41626 11.8632L9.53626 12.0282L11.1537 10.8518ZM11.735 12.49C11.735 11.8654 11.5096 11.3024 11.1305 10.8211L9.55951 12.0589C9.70036 12.2376 9.735 12.3746 9.735 12.49H11.735ZM11.3235 14.4676C11.4509 14.0091 11.55 13.622 11.618 13.3117C11.6803 13.0278 11.735 12.73 11.735 12.49H9.735C9.735 12.4756 9.73572 12.4986 9.72326 12.5794C9.71185 12.6533 9.69294 12.7535 9.66446 12.8833C9.6075 13.143 9.5191 13.4909 9.39648 13.9324L11.3235 14.4676ZM11 16.195C11 15.8948 11.0891 15.337 11.3255 14.4604L9.39449 13.9396C9.15089 14.843 9 15.6152 9 16.195H11ZM11.0521 16.4779C11.0514 16.4772 11.0422 16.4694 11.0306 16.4359C11.0173 16.3979 11 16.3228 11 16.195H9C9 16.8017 9.16589 17.4201 9.6379 17.8921L11.0521 16.4779ZM11.32 16.53C11.1044 16.53 11.0495 16.4751 11.0369 16.463L9.6531 17.907C10.1205 18.3549 10.7156 18.53 11.32 18.53V16.53ZM12.3136 16.3015C11.8966 16.4683 11.5698 16.53 11.32 16.53V18.53C11.8902 18.53 12.4734 18.3917 13.0564 18.1585L12.3136 16.3015ZM13.3526 15.7456C13.1039 15.9358 12.7661 16.1241 12.3199 16.299L13.0501 18.161C13.6239 17.9359 14.1361 17.6642 14.5675 17.3344L13.3526 15.7456ZM12.7491 16.1287L13.0191 16.8787L14.9009 16.2013L14.6309 15.4513L12.7491 16.1287ZM13.9611 16.7638L14.0961 16.7038L13.2839 14.8762L13.1489 14.9362L13.9611 16.7638ZM12.955 17C13.2574 17 13.6107 16.8886 13.881 16.7954L13.229 14.9046C13.0996 14.9492 13.0068 14.9769 12.945 14.9924C12.9145 15 12.8988 15.0028 12.8951 15.0034C12.8888 15.0044 12.912 15 12.955 15V17ZM11.79 15.58C11.79 15.7563 11.8032 16.0131 11.9005 16.2607C11.9523 16.3925 12.0498 16.5784 12.2358 16.7363C12.4404 16.9099 12.6948 17 12.955 17V15C13.1602 15 13.3664 15.0726 13.5298 15.2112C13.6746 15.3341 13.7377 15.4675 13.762 15.5293C13.8043 15.6369 13.79 15.6837 13.79 15.58H11.79ZM12.2 13.5178C12.0723 13.9878 11.9729 14.3889 11.9048 14.716C11.8407 15.0234 11.79 15.3296 11.79 15.58H13.79C13.79 15.5807 13.79 15.5705 13.7921 15.5465C13.7941 15.5231 13.7977 15.4915 13.8035 15.4506C13.8152 15.3681 13.8343 15.2602 13.8627 15.124C13.9196 14.8511 14.0077 14.4923 14.13 14.0422L12.2 13.5178ZM12.415 8.61C12.1455 8.61 12.0573 8.54203 12.0283 8.5152L10.6717 9.9848C11.1627 10.438 11.7845 10.61 12.415 10.61V8.61ZM12.8727 8.45894C12.7807 8.54477 12.6548 8.61 12.415 8.61V10.61C13.0952 10.61 13.7293 10.3952 14.2373 9.92106L12.8727 8.45894ZM13.02 8.2C13.02 8.26721 13.0081 8.33647 12.8847 8.4479L14.2253 9.9321C14.7219 9.48353 15.02 8.8928 15.02 8.2H13.02ZM13.0018 8.08071C13.0069 8.08502 13.0075 8.08637 13.0062 8.08462C13.0049 8.0828 13.0046 8.08189 13.0055 8.0839C13.0069 8.08724 13.02 8.11953 13.02 8.2H15.02C15.02 7.57843 14.8026 6.9814 14.2882 6.5493L13.0018 8.08071ZM12.595 8C12.8983 8 12.9898 8.07064 13.0018 8.08071L14.2882 6.5493C13.8002 6.13937 13.1917 6 12.595 6V8ZM12.0706 8.16611C12.1957 8.06448 12.3522 8 12.595 8V6C11.9378 6 11.3243 6.19552 10.8094 6.61389L12.0706 8.16611ZM11.975 8.335C11.975 8.28524 11.9841 8.26431 11.9885 8.25526C11.9936 8.24483 12.0108 8.21436 12.0678 8.16841L10.8122 6.61159C10.2799 7.0409 9.975 7.63622 9.975 8.335H11.975ZM12.0425 8.52861C12.0033 8.49095 11.975 8.45325 11.975 8.335H9.975C9.975 8.95675 10.1967 9.52905 10.6575 9.97139L12.0425 8.52861Z" fill="white" mask="url(#path-1-inside-1_3227_27174)"/>
</svg>
