<svg width="18" height="16" viewBox="0 0 18 16" fill="none" xmlns="http://www.w3.org/2000/svg">
<path d="M9.00278 15.9601L16.1627 8.80013C17.5028 7.39002 17.6685 6.43405 17.6685 6.43405C17.9069 5.5721 17.8529 4.92023 17.8529 4.92023C17.8529 2.2027 15.6502 0 12.9327 0C11.2822 0 9.82137 0.812925 8.92875 2.05999L8.8764 1.9883C7.98012 0.781582 6.544 0 4.92515 0C2.20795 0 0.0052528 2.2027 0.0052528 4.9199C0.0052528 4.9199 -0.0487643 5.5721 0.189645 6.43371C0.189645 6.43371 0.355364 7.38968 1.69546 8.7998L8.8554 15.9597C8.8554 15.9597 8.93276 16.0501 9.00278 15.9601Z" fill="#38B4FE"/>
</svg>
