<svg width="16" height="12" viewBox="0 0 16 12" fill="none" xmlns="http://www.w3.org/2000/svg">
    <path fill-rule="evenodd" clip-rule="evenodd" d="M8.01.108a.755.755 0 0 1 .385.652v10.48a.755.755 0 0 1-.384.652.816.816 0 0 1-.779.018L3.347 9.904H1.289c-.436 0-.789-.34-.789-.76V2.856c0-.42.353-.76.79-.76h2.057L7.232.09a.816.816 0 0 1 .779.018zM3.933 8.48 6.816 9.97V2.03L3.918 3.526a.814.814 0 0 1-.373.09H2.08v4.768h1.466a.81.81 0 0 1 .387.097z" fill="#4F4F4F"/>
    <path d="M9.268 3.46a.804.804 0 0 1 1.06-.339c1.16.56 2.014 1.647 2.014 2.96 0 1.314-.855 2.401-2.015 2.96a.804.804 0 0 1-1.06-.339.747.747 0 0 1 .353-1.02c.728-.35 1.143-.965 1.143-1.6 0-.636-.415-1.25-1.143-1.601a.747.747 0 0 1-.352-1.02z" fill="#4F4F4F"/>
    <path d="M11.877.827a.802.802 0 0 0-1.044.381.75.75 0 0 0 .395 1.005c1.612.7 2.693 2.182 2.693 3.868 0 1.687-1.081 3.17-2.693 3.868a.75.75 0 0 0-.395 1.006.802.802 0 0 0 1.044.38C14 10.416 15.5 8.422 15.5 6.082c0-2.34-1.5-4.333-3.623-5.254z" fill="#4F4F4F"/>
</svg>
