<svg width="48" height="50" viewBox="0 0 48 50" fill="none" xmlns="http://www.w3.org/2000/svg">
<rect x="0.5" y="2.5" width="47" height="47" rx="23.5" fill="#B73133"/>
<rect x="0.5" y="2.5" width="47" height="47" rx="23.5" stroke="#B73133"/>
<rect x="0.25" y="0.25" width="47.5" height="47.5" rx="23.75" fill="url(#paint0_linear_2515_82119)"/>
<g filter="url(#filter0_d_2515_82119)">
<mask id="path-3-outside-1_2515_82119" maskUnits="userSpaceOnUse" x="13.5" y="15.1072" width="21" height="18" fill="black">
<rect fill="white" x="13.5" y="15.1072" width="21" height="18"/>
<path fill-rule="evenodd" clip-rule="evenodd" d="M24.0136 16.2491C24.3153 16.4297 24.5 16.7555 24.5 17.1072V30.8929C24.5 31.2446 24.3153 31.5704 24.0136 31.751C23.7118 31.9316 23.3374 31.9404 23.0275 31.7742L18.1059 29.1357H15.5C14.9477 29.1357 14.5 28.688 14.5 28.1357V19.8643C14.5 19.312 14.9477 18.8643 15.5 18.8643H18.106L23.0275 16.2258C23.3374 16.0597 23.7118 16.0685 24.0136 16.2491ZM18.8467 27.2636L22.5 29.2222V18.7779L18.8296 20.7456C18.6843 20.8235 18.522 20.8643 18.3571 20.8643H16.5V27.1357H18.3571C18.535 27.1357 18.702 27.1822 18.8467 27.2636ZM26.1344 21.0078C26.4109 20.5298 27.0227 20.3664 27.5007 20.6429C28.6937 21.333 29.5 22.6254 29.5 24.1072C29.5 25.589 28.6937 26.8813 27.5007 27.5715C27.0227 27.848 26.4109 27.6846 26.1344 27.2066C25.8579 26.7285 26.0212 26.1168 26.4993 25.8402C27.0997 25.4929 27.5 24.8462 27.5 24.1072C27.5 23.3682 27.0997 22.7215 26.4993 22.3742C26.0212 22.0976 25.8579 21.4859 26.1344 21.0078ZM28.9291 16.8776C28.4302 16.6406 27.8337 16.8529 27.5967 17.3517C27.3598 17.8506 27.5721 18.4471 28.0709 18.6841C30.1003 19.6482 31.5 21.7152 31.5 24.1072C31.5 26.4992 30.1003 28.5662 28.0709 29.5303C27.5721 29.7673 27.3598 30.3638 27.5967 30.8627C27.8337 31.3615 28.4302 31.5738 28.9291 31.3368C31.6296 30.054 33.5 27.3 33.5 24.1072C33.5 20.9144 31.6296 18.1604 28.9291 16.8776Z"/>
</mask>
<path fill-rule="evenodd" clip-rule="evenodd" d="M24.0136 16.2491C24.3153 16.4297 24.5 16.7555 24.5 17.1072V30.8929C24.5 31.2446 24.3153 31.5704 24.0136 31.751C23.7118 31.9316 23.3374 31.9404 23.0275 31.7742L18.1059 29.1357H15.5C14.9477 29.1357 14.5 28.688 14.5 28.1357V19.8643C14.5 19.312 14.9477 18.8643 15.5 18.8643H18.106L23.0275 16.2258C23.3374 16.0597 23.7118 16.0685 24.0136 16.2491ZM18.8467 27.2636L22.5 29.2222V18.7779L18.8296 20.7456C18.6843 20.8235 18.522 20.8643 18.3571 20.8643H16.5V27.1357H18.3571C18.535 27.1357 18.702 27.1822 18.8467 27.2636ZM26.1344 21.0078C26.4109 20.5298 27.0227 20.3664 27.5007 20.6429C28.6937 21.333 29.5 22.6254 29.5 24.1072C29.5 25.589 28.6937 26.8813 27.5007 27.5715C27.0227 27.848 26.4109 27.6846 26.1344 27.2066C25.8579 26.7285 26.0212 26.1168 26.4993 25.8402C27.0997 25.4929 27.5 24.8462 27.5 24.1072C27.5 23.3682 27.0997 22.7215 26.4993 22.3742C26.0212 22.0976 25.8579 21.4859 26.1344 21.0078ZM28.9291 16.8776C28.4302 16.6406 27.8337 16.8529 27.5967 17.3517C27.3598 17.8506 27.5721 18.4471 28.0709 18.6841C30.1003 19.6482 31.5 21.7152 31.5 24.1072C31.5 26.4992 30.1003 28.5662 28.0709 29.5303C27.5721 29.7673 27.3598 30.3638 27.5967 30.8627C27.8337 31.3615 28.4302 31.5738 28.9291 31.3368C31.6296 30.054 33.5 27.3 33.5 24.1072C33.5 20.9144 31.6296 18.1604 28.9291 16.8776Z" fill="white"/>
<path d="M24.0136 16.2491L23.7568 16.6782L23.7568 16.6782L24.0136 16.2491ZM24.0136 31.751L24.2704 32.18H24.2704L24.0136 31.751ZM23.0275 31.7742L23.2638 31.3336V31.3336L23.0275 31.7742ZM18.1059 29.1357L18.3422 28.6951L18.2315 28.6357H18.1059V29.1357ZM18.106 18.8643V19.3643H18.2315L18.3422 19.305L18.106 18.8643ZM23.0275 16.2258L22.7913 15.7852L23.0275 16.2258ZM22.5 29.2222L22.2638 29.6628L23 30.0575V29.2222H22.5ZM18.8467 27.2636L18.6015 27.6995L18.6105 27.7043L18.8467 27.2636ZM22.5 18.7779H23V17.9426L22.2638 18.3373L22.5 18.7779ZM18.8296 20.7456L18.5934 20.305H18.5934L18.8296 20.7456ZM16.5 20.8643V20.3643H16V20.8643H16.5ZM16.5 27.1357H16V27.6357H16.5V27.1357ZM27.5007 20.6429L27.2504 21.0757H27.2504L27.5007 20.6429ZM26.1344 21.0078L25.7016 20.7575V20.7575L26.1344 21.0078ZM27.5007 27.5715L27.2504 27.1387L27.2504 27.1387L27.5007 27.5715ZM26.1344 27.2066L25.7016 27.4569L26.1344 27.2066ZM26.4993 25.8402L26.7496 26.273H26.7496L26.4993 25.8402ZM26.4993 22.3742L26.7496 21.9413L26.4993 22.3742ZM27.5967 17.3517L28.0484 17.5663V17.5663L27.5967 17.3517ZM28.9291 16.8776L29.1436 16.4259V16.4259L28.9291 16.8776ZM28.0709 18.6841L28.2855 18.2325L28.0709 18.6841ZM28.0709 29.5303L28.2855 29.9819L28.0709 29.5303ZM27.5967 30.8627L27.1451 31.0772V31.0772L27.5967 30.8627ZM28.9291 31.3368L28.7145 30.8852L28.9291 31.3368ZM25 17.1072C25 16.5797 24.723 16.091 24.2704 15.8201L23.7568 16.6782C23.9077 16.7685 24 16.9314 24 17.1072H25ZM25 30.8929V17.1072H24V30.8929H25ZM24.2704 32.18C24.723 31.9091 25 31.4204 25 30.8929H24C24 31.0687 23.9077 31.2316 23.7568 31.3219L24.2704 32.18ZM22.7913 32.2149C23.2561 32.4641 23.8178 32.4509 24.2704 32.18L23.7568 31.3219C23.6059 31.4122 23.4187 31.4167 23.2638 31.3336L22.7913 32.2149ZM17.8697 29.5764L22.7913 32.2149L23.2638 31.3336L18.3422 28.6951L17.8697 29.5764ZM15.5 29.6357H18.1059V28.6357H15.5V29.6357ZM14 28.1357C14 28.9642 14.6716 29.6357 15.5 29.6357V28.6357C15.2239 28.6357 15 28.4119 15 28.1357H14ZM14 19.8643V28.1357H15V19.8643H14ZM15.5 18.3643C14.6716 18.3643 14 19.0359 14 19.8643H15C15 19.5882 15.2239 19.3643 15.5 19.3643V18.3643ZM18.106 18.3643H15.5V19.3643H18.106V18.3643ZM22.7913 15.7852L17.8697 18.4236L18.3422 19.305L23.2638 16.6665L22.7913 15.7852ZM24.2704 15.8201C23.8178 15.5492 23.2561 15.5359 22.7913 15.7852L23.2638 16.6665C23.4187 16.5834 23.6059 16.5879 23.7568 16.6782L24.2704 15.8201ZM22.7362 28.7815L19.083 26.823L18.6105 27.7043L22.2638 29.6628L22.7362 28.7815ZM22 18.7779V29.2222H23V18.7779H22ZM19.0658 21.1863L22.7362 19.2186L22.2638 18.3373L18.5934 20.305L19.0658 21.1863ZM18.3571 21.3643C18.6044 21.3643 18.8479 21.3032 19.0658 21.1863L18.5934 20.305C18.5207 20.3439 18.4395 20.3643 18.3571 20.3643V21.3643ZM16.5 21.3643H18.3571V20.3643H16.5V21.3643ZM17 27.1357V20.8643H16V27.1357H17ZM18.3571 26.6357H16.5V27.6357H18.3571V26.6357ZM19.0919 26.8279C18.8743 26.7054 18.6231 26.6357 18.3571 26.6357V27.6357C18.4469 27.6357 18.5297 27.659 18.6016 27.6994L19.0919 26.8279ZM27.7511 20.2101C27.034 19.7953 26.1164 20.0404 25.7016 20.7575L26.5672 21.2582C26.7055 21.0192 27.0113 20.9375 27.2504 21.0757L27.7511 20.2101ZM30 24.1072C30 22.4395 29.092 20.9858 27.7511 20.2101L27.2504 21.0757C28.2954 21.6803 29 22.8113 29 24.1072H30ZM27.7511 28.0043C29.092 27.2286 30 25.7749 30 24.1072H29C29 25.4031 28.2954 26.5341 27.2504 27.1387L27.7511 28.0043ZM25.7016 27.4569C26.1164 28.174 27.034 28.4191 27.7511 28.0043L27.2504 27.1387C27.0113 27.2769 26.7055 27.1952 26.5672 26.9562L25.7016 27.4569ZM26.2489 25.4074C25.5318 25.8223 25.2868 26.7398 25.7016 27.4569L26.5672 26.9562C26.4289 26.7172 26.5106 26.4113 26.7496 26.273L26.2489 25.4074ZM27 24.1072C27 24.6609 26.7008 25.146 26.2489 25.4074L26.7496 26.273C27.4986 25.8398 28 25.0315 28 24.1072H27ZM26.2489 22.807C26.7008 23.0684 27 23.5535 27 24.1072H28C28 23.1829 27.4986 22.3746 26.7496 21.9413L26.2489 22.807ZM25.7016 20.7575C25.2868 21.4745 25.5318 22.3921 26.2489 22.807L26.7496 21.9413C26.5106 21.8031 26.4289 21.4972 26.5672 21.2582L25.7016 20.7575ZM28.0484 17.5663C28.1669 17.3168 28.4651 17.2107 28.7145 17.3292L29.1436 16.4259C28.3954 16.0705 27.5006 16.3889 27.1451 17.1372L28.0484 17.5663ZM28.2855 18.2325C28.036 18.114 27.9299 17.8157 28.0484 17.5663L27.1451 17.1372C26.7896 17.8855 27.1081 18.7802 27.8564 19.1357L28.2855 18.2325ZM32 24.1072C32 21.5152 30.4828 19.2763 28.2855 18.2325L27.8564 19.1357C29.7179 20.02 31 21.9153 31 24.1072H32ZM28.2855 29.9819C30.4828 28.9381 32 26.6992 32 24.1072H31C31 26.2991 29.7179 28.1944 27.8564 29.0787L28.2855 29.9819ZM28.0484 30.6481C27.9299 30.3987 28.036 30.1004 28.2855 29.9819L27.8564 29.0787C27.1081 29.4341 26.7896 30.3289 27.1451 31.0772L28.0484 30.6481ZM28.7145 30.8852C28.4651 31.0037 28.1669 30.8975 28.0484 30.6481L27.1451 31.0772C27.5006 31.8255 28.3954 32.1439 29.1436 31.7885L28.7145 30.8852ZM33 24.1072C33 27.0997 31.2474 29.682 28.7145 30.8852L29.1436 31.7885C32.0118 30.426 34 27.5003 34 24.1072H33ZM28.7145 17.3292C31.2474 18.5324 33 21.1147 33 24.1072H34C34 20.714 32.0118 17.7884 29.1436 16.4259L28.7145 17.3292Z" fill="#B73133" mask="url(#path-3-outside-1_2515_82119)"/>
</g>
<rect x="0.25" y="0.25" width="47.5" height="47.5" rx="23.75" stroke="#B73133" stroke-width="0.5"/>
<g filter="url(#filter1_f_2515_82119)">
<ellipse cx="12.1531" cy="9.43107" rx="4.62527" ry="2.77516" transform="rotate(-39.8539 12.1531 9.43107)" fill="white"/>
</g>
<defs>
<filter id="filter0_d_2515_82119" x="13.5" y="15.6072" width="21" height="17.7858" filterUnits="userSpaceOnUse" color-interpolation-filters="sRGB">
<feFlood flood-opacity="0" result="BackgroundImageFix"/>
<feColorMatrix in="SourceAlpha" type="matrix" values="0 0 0 0 0 0 0 0 0 0 0 0 0 0 0 0 0 0 127 0" result="hardAlpha"/>
<feOffset dy="0.5"/>
<feGaussianBlur stdDeviation="0.25"/>
<feComposite in2="hardAlpha" operator="out"/>
<feColorMatrix type="matrix" values="0 0 0 0 0 0 0 0 0 0 0 0 0 0 0 0 0 0 0.25 0"/>
<feBlend mode="normal" in2="BackgroundImageFix" result="effect1_dropShadow_2515_82119"/>
<feBlend mode="normal" in="SourceGraphic" in2="effect1_dropShadow_2515_82119" result="shape"/>
</filter>
<filter id="filter1_f_2515_82119" x="7.18098" y="4.78052" width="9.94414" height="9.30103" filterUnits="userSpaceOnUse" color-interpolation-filters="sRGB">
<feFlood flood-opacity="0" result="BackgroundImageFix"/>
<feBlend mode="normal" in="SourceGraphic" in2="BackgroundImageFix" result="shape"/>
<feGaussianBlur stdDeviation="0.5" result="effect1_foregroundBlur_2515_82119"/>
</filter>
<linearGradient id="paint0_linear_2515_82119" x1="24" y1="0" x2="24" y2="48" gradientUnits="userSpaceOnUse">
<stop stop-color="#DD4C4F"/>
<stop offset="0.786458" stop-color="#C63A3C"/>
<stop offset="1" stop-color="#DD4C4F"/>
</linearGradient>
</defs>
</svg>
