<svg width="235" height="91" viewBox="0 0 235 91" fill="none" xmlns="http://www.w3.org/2000/svg">
<path d="M17.5996 24.23V30.84H22.0096V38.92H33.0296V35.25H62.4096V24.23H69.0196V8.81H80.0396V24.23H110.03V57.16H123.98V13.22H143.81V24.24H151.15V9.55H166.57V15.43H188.36V28.65L192.77 35.99V48.47H200.24V0L209.05 6.61V42.59H221.66V33.78H234.88V71.97H-0.000366211V24.23H17.6296H17.5996ZM228.25 35.99H226.05V40.4H228.25V35.99ZM232.66 35.99H230.46V40.4H232.66V35.99ZM232.66 42.6H230.46V47.01H232.66V42.6ZM232.66 49.21H228.25V53.62H232.66V49.21ZM223.85 60.78H228.26V55.82H223.85V60.78ZM223.85 47.01H228.26V42.6H223.85V47.01ZM216.14 51.42H220.55V49.22H216.14V51.42ZM216.14 47.01H220.55V44.81H216.14V47.01ZM209.53 55.82H213.94V53.62H209.53V55.82ZM209.53 51.41H213.94V49.21H209.53V51.41ZM209.53 47H213.94V44.8H209.53V47ZM206.84 13.22H204.64V15.42H206.84V13.22ZM206.84 22.03H204.64V24.23H206.84V22.03ZM206.84 30.84H204.64V33.04H206.84V30.84ZM202.92 55.81H207.33V53.61H202.92V55.81ZM202.92 47H207.33V44.8H202.92V47ZM202.43 28.64H204.63V26.44H202.43V28.64ZM202.43 19.83H204.63V17.63H202.43V19.83ZM202.43 11.02H204.63V8.82H202.43V11.02ZM188.35 41.86H190.55V37.45H188.35V41.86ZM183.94 41.86H186.14V37.45H183.94V41.86ZM183.94 28.64H186.14V24.23H183.94V28.64ZM183.94 22.03H186.14V17.62H183.94V22.03ZM179.53 35.25H181.73V30.84H179.53V35.25ZM179.53 28.64H181.73V24.23H179.53V28.64ZM179.53 22.03H181.73V17.62H179.53V22.03ZM175.12 35.25H177.32V30.84H175.12V35.25ZM175.12 28.64H177.32V24.23H175.12V28.64ZM170.71 22.03H172.91V17.62H170.71V22.03ZM162.14 44.8H164.34V42.6H162.14V44.8ZM162.14 40.39H164.34V38.19H162.14V40.39ZM162.14 27.17H164.34V24.97H162.14V27.17ZM162.14 18.36H164.34V16.16H162.14V18.36ZM162.14 13.95H164.34V11.75H162.14V13.95ZM157.73 44.79H159.93V42.59H157.73V44.79ZM157.73 35.98H159.93V33.78H157.73V35.98ZM157.73 22.76H159.93V20.56H157.73V22.76ZM157.73 18.35H159.93V16.15H157.73V18.35ZM153.32 44.79H155.52V42.59H153.32V44.79ZM153.32 35.98H155.52V33.78H153.32V35.98ZM153.32 31.57H155.52V29.37H153.32V31.57ZM153.32 27.16H155.52V24.96H153.32V27.16ZM153.32 13.94H155.52V11.74H153.32V13.94ZM144.59 46.5H146.79V42.09H144.59V46.5ZM134.59 19.08H130.62V21.28H134.59V19.08ZM141.2 16.88H137.23V19.08H141.2V16.88ZM141.2 23.49H137.23V25.69H141.2V23.49ZM141.2 27.9H133.27V30.1H141.2V27.9ZM141.2 34.51H137.23V36.71H141.2V34.51ZM135.77 53.11H137.97V48.7H135.77V53.11ZM135.77 46.5H137.97V42.09H135.77V46.5ZM131.36 46.5H133.56V42.09H131.36V46.5ZM126.95 53.11H129.15V48.7H126.95V53.11ZM126.5 25.69H134.58V23.49H126.5V25.69ZM73.3796 11H71.1796V15.41H73.3796V11ZM73.3796 17.61H71.1796V22.02H73.3796V17.61ZM77.7896 11H75.5896V15.41H77.7896V11ZM77.7896 17.61H75.5896V22.02H77.7896V17.61ZM96.8796 27.89H92.4696V30.09H96.8796V27.89ZM95.4096 41.11H107.89V38.91H95.4096V41.11ZM89.9796 36.7H99.0896V34.5H103.06V32.3H99.0896V34.5H89.9796V36.7ZM84.3996 27.89H79.9896V30.09H84.3996V27.89ZM77.0596 34.5H83.6696V32.3H77.0596V34.5ZM64.5796 38.91H73.3896V36.71H64.5796V38.91ZM74.1296 34.5V32.3H69.7196V34.5H74.1296ZM64.5796 34.5H67.5196V32.3H64.5796V34.5ZM64.5796 30.09H77.7996V27.89H64.5796V30.09ZM56.4996 43.31H58.6996V38.9H56.4996V43.31ZM51.3596 46.98H53.5596V42.57H51.3596V46.98ZM48.4196 38.9H46.2196V43.31H48.4196V38.9ZM44.0096 50.65H46.2096V46.24H44.0096V50.65ZM41.8096 38.9H39.6096V43.31H41.8096V38.9ZM37.3996 50.65H39.5996V46.24H37.3996V50.65ZM26.3796 46.24H28.5797V41.28H26.3796V46.24ZM12.1796 46.24H14.3796V44.04H12.1796V46.24ZM12.1796 41.83H14.3796V39.63H12.1796V41.83ZM12.1796 37.42H14.3796V35.22H12.1796V37.42ZM12.1796 33.01H14.3796V30.81H12.1796V33.01ZM7.76965 46.23H9.96964V44.03H7.76965V46.23ZM7.76965 37.42H9.96964V35.22H7.76965V37.42ZM7.76965 33.01H9.96964V30.81H7.76965V33.01ZM7.76965 28.6H9.96964V26.4H7.76965V28.6ZM3.35965 46.23H5.55963V44.03H3.35965V46.23ZM3.35965 41.82H5.55963V39.62H3.35965V41.82ZM3.35965 33.01H5.55963V30.81H3.35965V33.01Z" fill="#C8DCED"/>
<path d="M155.35 68.6202C155.73 67.9202 155.78 67.0502 155.42 66.2802C155.4 66.2302 155.37 66.1802 155.35 66.1402C154.81 65.0602 153.62 64.5202 152.49 64.7502C152.41 63.4702 151.35 62.4502 150.05 62.4502C149.11 62.4502 148.29 62.9802 147.88 63.7602C147.47 62.9802 146.65 62.4502 145.71 62.4502C144.77 62.4502 143.95 62.9802 143.54 63.7602C143.13 62.9802 142.31 62.4502 141.37 62.4502C140.43 62.4502 139.61 62.9802 139.2 63.7602C138.79 62.9802 137.97 62.4502 137.03 62.4502C136.09 62.4502 135.27 62.9802 134.86 63.7602C134.45 62.9802 133.63 62.4502 132.69 62.4502C131.75 62.4502 130.93 62.9802 130.52 63.7602C130.11 62.9802 129.29 62.4502 128.35 62.4502C127.41 62.4502 126.59 62.9802 126.18 63.7602C125.77 62.9802 124.95 62.4502 124.01 62.4502C123.07 62.4502 122.25 62.9802 121.84 63.7602C121.43 62.9802 120.61 62.4502 119.67 62.4502C118.37 62.4502 117.31 63.4702 117.23 64.7502C116.1 64.5202 114.91 65.0602 114.37 66.1402C114.35 66.1902 114.32 66.2302 114.3 66.2802C113.93 67.0602 113.99 67.9202 114.37 68.6202C113.46 68.9902 112.82 69.8802 112.82 70.9202C112.82 72.2902 113.93 73.4002 115.3 73.4002H154.41C155.78 73.4002 156.89 72.2902 156.89 70.9202C156.89 69.8802 156.25 68.9902 155.34 68.6202H155.35Z" fill="#80A62C"/>
<path d="M42.8301 66.3198C47.6958 66.3198 51.6401 62.3755 51.6401 57.5098C51.6401 52.6442 47.6958 48.6998 42.8301 48.6998C37.9645 48.6998 34.0201 52.6442 34.0201 57.5098C34.0201 62.3755 37.9645 66.3198 42.8301 66.3198Z" fill="#95C133"/>
<path d="M29.9001 67.7399C34.7657 67.7399 38.7101 63.7955 38.7101 58.9299C38.7101 54.0642 34.7657 50.1199 29.9001 50.1199C25.0345 50.1199 21.0901 54.0642 21.0901 58.9299C21.0901 63.7955 25.0345 67.7399 29.9001 67.7399Z" fill="#95C133"/>
<path d="M36.34 54.6898C40.2336 54.6898 43.39 51.5335 43.39 47.6398C43.39 43.7462 40.2336 40.5898 36.34 40.5898C32.4464 40.5898 29.29 43.7462 29.29 47.6398C29.29 51.5335 32.4464 54.6898 36.34 54.6898Z" fill="#95C133"/>
<path d="M38.6001 70.2098C41.715 70.2098 44.2401 67.6847 44.2401 64.5698C44.2401 61.4549 41.715 58.9298 38.6001 58.9298C35.4852 58.9298 32.9601 61.4549 32.9601 64.5698C32.9601 67.6847 35.4852 70.2098 38.6001 70.2098Z" fill="#95C133"/>
<path d="M36.3401 54.1499L38.1001 75.8499H34.5801L36.3401 54.1499Z" fill="#B09069"/>
<path d="M103.94 71.0699C104.32 70.3699 104.37 69.4999 104.01 68.7299C103.99 68.6799 103.96 68.6299 103.94 68.5899C103.4 67.5099 102.21 66.9699 101.08 67.1999C101 65.9199 99.9399 64.8999 98.6399 64.8999C97.6999 64.8999 96.8799 65.4299 96.4699 66.2099C96.0599 65.4299 95.2399 64.8999 94.2999 64.8999C93.3599 64.8999 92.5399 65.4299 92.1299 66.2099C91.7199 65.4299 90.8999 64.8999 89.9599 64.8999C89.0199 64.8999 88.1999 65.4299 87.7899 66.2099C87.3799 65.4299 86.5599 64.8999 85.6199 64.8999C84.6799 64.8999 83.8599 65.4299 83.4499 66.2099C83.0399 65.4299 82.2199 64.8999 81.2799 64.8999C80.3399 64.8999 79.5199 65.4299 79.1099 66.2099C78.6999 65.4299 77.8799 64.8999 76.9399 64.8999C75.9999 64.8999 75.1799 65.4299 74.7699 66.2099C74.3599 65.4299 73.5399 64.8999 72.5999 64.8999C71.6599 64.8999 70.8399 65.4299 70.4299 66.2099C70.0199 65.4299 69.1999 64.8999 68.2599 64.8999C66.9599 64.8999 65.8999 65.9199 65.8199 67.1999C64.6899 66.9699 63.4999 67.5099 62.9599 68.5899C62.9399 68.6399 62.9099 68.6799 62.8899 68.7299C62.5199 69.5099 62.5799 70.3699 62.9599 71.0699C62.0499 71.4399 61.4099 72.3299 61.4099 73.3699C61.4099 74.7399 62.5199 75.8499 63.8899 75.8499H103C104.37 75.8499 105.48 74.7399 105.48 73.3699C105.48 72.3299 104.84 71.4399 103.93 71.0699H103.94Z" fill="#80A62C"/>
<path d="M130.95 82.7H121.16L122.34 90.53H129.78L130.95 82.7Z" fill="#876B5C"/>
<path d="M131.17 76.84L130.14 78.04C130.02 78.19 129.79 78.04 129.85 77.87L131.17 74.1C131.33 73.63 130.74 73.28 130.43 73.67L129.39 74.95C129.27 75.1 129.03 74.96 129.1 74.78L130.39 70.97C130.55 70.51 129.97 70.16 129.65 70.53L128.83 71.48C128.71 71.62 128.49 71.5 128.54 71.32L129.28 68.15C129.39 67.67 128.77 67.39 128.5 67.8L128.17 68.31C128.07 68.46 127.85 68.38 127.86 68.2L128.04 65.37C128.07 64.89 127.42 64.74 127.25 65.18L127 65.8C126.93 65.97 126.69 65.93 126.67 65.75L126.49 63.51C126.45 62.97 125.68 62.97 125.64 63.51L125.46 65.75C125.45 65.93 125.2 65.97 125.13 65.8L124.88 65.18C124.7 64.74 124.06 64.89 124.09 65.37L124.27 68.2C124.28 68.38 124.05 68.46 123.96 68.31L123.63 67.8C123.36 67.39 122.73 67.67 122.85 68.15L123.59 71.32C123.63 71.5 123.41 71.61 123.3 71.48L122.48 70.53C122.17 70.16 121.59 70.51 121.74 70.97L123.03 74.78C123.09 74.96 122.86 75.1 122.74 74.95L121.7 73.67C121.39 73.29 120.79 73.64 120.96 74.1L122.28 77.87C122.34 78.05 122.11 78.19 121.99 78.04L120.96 76.84C120.64 76.46 120.05 76.84 120.23 77.3L122.34 82.7H129.8L131.91 77.3C132.09 76.84 131.5 76.46 131.18 76.84H131.17Z" fill="#95C133"/>
<path d="M85.9097 45.86H84.6897V54.43H85.9097V45.86Z" fill="#636363"/>
<path d="M83.4597 45.86H82.2397V54.43H83.4597V45.86Z" fill="#636363"/>
<path d="M88.3598 45.86H87.1398V54.43H88.3598V45.86Z" fill="#636363"/>
<path d="M93.2498 45.86H92.0298V54.43H93.2498V45.86Z" fill="#636363"/>
<path d="M90.7997 45.86H89.5797V54.43H90.7997V45.86Z" fill="#636363"/>
<path d="M95.6997 45.86H94.4797V54.43H95.6997V45.86Z" fill="#636363"/>
<path d="M98.1497 45.86H96.9297V54.43H98.1497V45.86Z" fill="#636363"/>
<path d="M83.4597 56.26H82.2397V90.53H83.4597V56.26Z" fill="#C1C1C1"/>
<path d="M98.1498 56.26H96.9298V90.53H98.1498V56.26Z" fill="#C1C1C1"/>
<path d="M98.1498 53.8101L96.4198 54.4301L109.32 90.5301H111.27L98.1498 53.8101Z" fill="#FF5538"/>
<path d="M100.91 45.25H81.0198V47.08H99.6098L115.13 90.53H117.08L100.91 45.25Z" fill="#636363"/>
<path d="M86.7398 54H83.0298C80.7798 54 78.6498 55.03 77.2598 56.81L55.5598 84.42C54.8598 85.31 53.8098 85.82 52.6698 85.82H48.8998C46.1998 85.82 43.9998 88.01 43.9998 90.72H52.6698C55.3198 90.72 57.7698 89.53 59.4098 87.45L81.9298 58.79C83.0998 57.3 84.8498 56.45 86.7398 56.45H97.8598V54H86.7398Z" fill="#FF5538"/>
<path d="M170.37 76.2501L165.05 77.6801L162.87 71.9301L169.37 70.1801L170.37 76.2501Z" fill="#FACA1E"/>
<path d="M169.504 69.5119L162.414 71.4116L162.572 72.0008L169.662 70.1011L169.504 69.5119Z" fill="#FDEAA5"/>
<path d="M164.86 66.3301C163.06 66.8101 162.11 69.0501 162.72 71.3401L163.07 71.2401C162.51 69.1501 163.36 67.1101 164.95 66.6801C166.55 66.2501 168.3 67.6001 168.86 69.6901L169.21 69.5901C168.6 67.3001 166.65 65.8401 164.85 66.3201L164.86 66.3301Z" fill="#636363"/>
<path d="M165.55 66.7801L164.49 67.0701C164.29 67.1201 164.09 67.0101 164.04 66.8101C163.99 66.6101 164.1 66.4101 164.3 66.3601L165.36 66.0701C165.56 66.0201 165.76 66.1301 165.81 66.3301C165.86 66.5301 165.75 66.7301 165.55 66.7801Z" fill="white"/>
<path d="M150.59 74.01V75.7C150.59 77.35 151.29 78.92 152.51 80.03L153.01 80.49C153.18 80.65 153.41 80.74 153.65 80.74C153.89 80.74 154.11 80.65 154.29 80.49L154.79 80.03C156.01 78.92 156.71 77.35 156.71 75.7V74.01H150.59Z" fill="#A1A1A1"/>
<path d="M153.04 69.3601C153.04 72.6201 153.18 73.8601 153.46 77.1101L153.52 77.8301C153.52 77.8901 153.58 77.9301 153.65 77.9301C153.72 77.9301 153.78 77.8901 153.78 77.8301L153.84 77.1101C154.12 73.8601 154.26 72.6201 154.26 69.3601H153.04Z" fill="#C1C1C1"/>
<path d="M156.27 67.1101C156.11 66.8401 155.83 66.6901 155.48 66.6901H153.65H151.82C151.47 66.6901 151.19 66.8401 151.03 67.1101C150.84 67.4301 150.85 67.8801 151.07 68.2701C151.61 69.2401 152.45 69.7201 153.65 69.7501C154.84 69.7201 155.69 69.2301 156.23 68.2701C156.44 67.8901 156.46 67.4301 156.27 67.1101ZM155.61 67.9301C155.19 68.6801 154.59 69.0201 153.65 69.0501C152.71 69.0201 152.1 68.6801 151.69 67.9301C151.59 67.7501 151.59 67.5601 151.64 67.4701C151.65 67.4501 151.68 67.4001 151.82 67.4001H155.48C155.62 67.4001 155.65 67.4501 155.66 67.4701C155.71 67.5601 155.71 67.7501 155.61 67.9301Z" fill="#FF5538"/>
<path d="M186.28 80.7401H134.87V83.1901H186.28V80.7401Z" fill="#7C8DD2"/>
<path d="M185.05 83.1901H136.09L137.32 90.5301H183.83L185.05 83.1901Z" fill="#5B70C7"/>
<path d="M168.49 73.4001C164.08 73.4001 160.04 74.4801 156.89 76.2901C155.32 77.1901 153.43 77.4001 151.71 76.8301C150.19 76.3301 148.49 76.0501 146.69 76.0501C141.99 76.0501 137.95 77.9701 136.1 80.7501H185.06C182.17 76.4101 175.84 73.4101 168.5 73.4101L168.49 73.4001Z" fill="#FEEEDD"/>
<path d="M1.46021 90.5301H3.9102V66.0501C3.9102 65.3701 3.36021 64.8301 2.69021 64.8301C2.01021 64.8301 1.47021 65.3801 1.47021 66.0501V90.5301H1.46021Z" fill="#B09069"/>
<path d="M24.7102 66.0501V90.5301H27.1602V66.0501C27.1602 65.3701 26.6102 64.8301 25.9402 64.8301C25.2602 64.8301 24.7202 65.3801 24.7202 66.0501H24.7102Z" fill="#B09069"/>
<path d="M27.4702 70.9501H1.15022C0.640225 70.9501 0.230225 70.5401 0.230225 70.0301C0.230225 69.5201 0.640225 69.1101 1.15022 69.1101H27.4702C27.9802 69.1101 28.3902 69.5201 28.3902 70.0301C28.3902 70.5401 27.9802 70.9501 27.4702 70.9501Z" fill="#876B5C"/>
<path d="M27.4702 77.38H1.15022C0.640225 77.38 0.230225 76.97 0.230225 76.46C0.230225 75.95 0.640225 75.54 1.15022 75.54H27.4702C27.9802 75.54 28.3902 75.95 28.3902 76.46C28.3902 76.97 27.9802 77.38 27.4702 77.38Z" fill="#876B5C"/>
<path d="M27.4702 83.8001H1.15022C0.640225 83.8001 0.230225 83.3901 0.230225 82.8801C0.230225 82.3701 0.640225 81.9601 1.15022 81.9601H27.4702C27.9802 81.9601 28.3902 82.3701 28.3902 82.8801C28.3902 83.3901 27.9802 83.8001 27.4702 83.8001Z" fill="#876B5C"/>
<path d="M16.5102 67.28H12.1002C11.7964 67.28 11.5502 67.5263 11.5502 67.83V72.24C11.5502 72.5438 11.7964 72.79 12.1002 72.79H16.5102C16.8139 72.79 17.0602 72.5438 17.0602 72.24V67.83C17.0602 67.5263 16.8139 67.28 16.5102 67.28Z" fill="#FF5538"/>
<path d="M14.3102 67.89C13.1302 67.89 12.1702 68.85 12.1702 70.03C12.1702 71.21 13.1302 72.17 14.3102 72.17C15.4902 72.17 16.4502 71.21 16.4502 70.03C16.4502 68.85 15.4902 67.89 14.3102 67.89ZM14.3102 71.56C13.4702 71.56 12.7802 70.88 12.7802 70.03C12.7802 69.18 13.4602 68.5 14.3102 68.5C15.1602 68.5 15.8402 69.18 15.8402 70.03C15.8402 70.88 15.1602 71.56 14.3102 71.56Z" fill="white"/>
<path d="M22.9402 73.7001H18.5302C18.2265 73.7001 17.9802 73.9463 17.9802 74.2501V78.6601C17.9802 78.9638 18.2265 79.2101 18.5302 79.2101H22.9402C23.244 79.2101 23.4902 78.9638 23.4902 78.6601V74.2501C23.4902 73.9463 23.244 73.7001 22.9402 73.7001Z" fill="#FF5538"/>
<path d="M20.7302 74.3201C19.5502 74.3201 18.5902 75.2801 18.5902 76.4601C18.5902 77.6401 19.5502 78.6001 20.7302 78.6001C21.9102 78.6001 22.8702 77.6401 22.8702 76.4601C22.8702 75.2801 21.9102 74.3201 20.7302 74.3201ZM20.7302 77.9901C19.8902 77.9901 19.2002 77.3101 19.2002 76.4601C19.2002 75.6101 19.8802 74.9301 20.7302 74.9301C21.5802 74.9301 22.2602 75.6101 22.2602 76.4601C22.2602 77.3101 21.5802 77.9901 20.7302 77.9901Z" fill="white"/>
<path d="M22.9402 67.28H18.5302C18.2265 67.28 17.9802 67.5263 17.9802 67.83V72.24C17.9802 72.5438 18.2265 72.79 18.5302 72.79H22.9402C23.244 72.79 23.4902 72.5438 23.4902 72.24V67.83C23.4902 67.5263 23.244 67.28 22.9402 67.28Z" fill="#FACA1E"/>
<path d="M21.1702 70.0301L22.5902 68.6101C22.7102 68.4901 22.7102 68.3001 22.5902 68.1801C22.4702 68.0601 22.2802 68.0601 22.1602 68.1801L20.7402 69.6001L19.3202 68.1801C19.2002 68.0601 19.0102 68.0601 18.8902 68.1801C18.7702 68.3001 18.7702 68.4901 18.8902 68.6101L20.3102 70.0301L18.8902 71.4501C18.7702 71.5701 18.7702 71.7601 18.8902 71.8801C19.0102 72.0001 19.2002 72.0001 19.3202 71.8801L20.7402 70.4601L22.1602 71.8801C22.2802 72.0001 22.4702 72.0001 22.5902 71.8801C22.7102 71.7601 22.7102 71.5701 22.5902 71.4501L21.1702 70.0301Z" fill="white"/>
<path d="M10.0903 67.28H5.68025C5.37649 67.28 5.13025 67.5263 5.13025 67.83V72.24C5.13025 72.5438 5.37649 72.79 5.68025 72.79H10.0903C10.394 72.79 10.6402 72.5438 10.6402 72.24V67.83C10.6402 67.5263 10.394 67.28 10.0903 67.28Z" fill="#FACA1E"/>
<path d="M8.32019 70.0301L9.74019 68.6101C9.86019 68.4901 9.86019 68.3001 9.74019 68.1801C9.62019 68.0601 9.43019 68.0601 9.31019 68.1801L7.89019 69.6001L6.47019 68.1801C6.35019 68.0601 6.1602 68.0601 6.0402 68.1801C5.9202 68.3001 5.9202 68.4901 6.0402 68.6101L7.46019 70.0301L6.0402 71.4501C5.9202 71.5701 5.9202 71.7601 6.0402 71.8801C6.1602 72.0001 6.35019 72.0001 6.47019 71.8801L7.89019 70.4601L9.31019 71.8801C9.43019 72.0001 9.62019 72.0001 9.74019 71.8801C9.86019 71.7601 9.86019 71.5701 9.74019 71.4501L8.32019 70.0301Z" fill="white"/>
<path d="M10.0903 73.7001H5.68025C5.37649 73.7001 5.13025 73.9463 5.13025 74.2501V78.6601C5.13025 78.9638 5.37649 79.2101 5.68025 79.2101H10.0903C10.394 79.2101 10.6402 78.9638 10.6402 78.6601V74.2501C10.6402 73.9463 10.394 73.7001 10.0903 73.7001Z" fill="#FF5538"/>
<path d="M7.88023 74.3201C6.70023 74.3201 5.74023 75.2801 5.74023 76.4601C5.74023 77.6401 6.70023 78.6001 7.88023 78.6001C9.06023 78.6001 10.0202 77.6401 10.0202 76.4601C10.0202 75.2801 9.06023 74.3201 7.88023 74.3201ZM7.88023 77.9901C7.04023 77.9901 6.35023 77.3101 6.35023 76.4601C6.35023 75.6101 7.03023 74.9301 7.88023 74.9301C8.73023 74.9301 9.41023 75.6101 9.41023 76.4601C9.41023 77.3101 8.73023 77.9901 7.88023 77.9901Z" fill="white"/>
<path d="M16.5102 73.7001H12.1002C11.7964 73.7001 11.5502 73.9463 11.5502 74.2501V78.6601C11.5502 78.9638 11.7964 79.2101 12.1002 79.2101H16.5102C16.8139 79.2101 17.0602 78.9638 17.0602 78.6601V74.2501C17.0602 73.9463 16.8139 73.7001 16.5102 73.7001Z" fill="#FACA1E"/>
<path d="M14.7401 76.46L16.1601 75.04C16.2801 74.92 16.2801 74.73 16.1601 74.61C16.0401 74.49 15.8501 74.49 15.7301 74.61L14.3101 76.03L12.8901 74.61C12.7701 74.49 12.5801 74.49 12.4601 74.61C12.3401 74.73 12.3401 74.92 12.4601 75.04L13.8801 76.46L12.4601 77.88C12.3401 78 12.3401 78.19 12.4601 78.31C12.5801 78.43 12.7701 78.43 12.8901 78.31L14.3101 76.89L15.7301 78.31C15.8501 78.43 16.0401 78.43 16.1601 78.31C16.2801 78.19 16.2801 78 16.1601 77.88L14.7401 76.46Z" fill="white"/>
<path d="M16.5102 80.1301H12.1002C11.7964 80.1301 11.5502 80.3764 11.5502 80.6801V85.0901C11.5502 85.3939 11.7964 85.6401 12.1002 85.6401H16.5102C16.8139 85.6401 17.0602 85.3939 17.0602 85.0901V80.6801C17.0602 80.3764 16.8139 80.1301 16.5102 80.1301Z" fill="#FF5538"/>
<path d="M14.3102 80.7401C13.1302 80.7401 12.1702 81.7001 12.1702 82.8801C12.1702 84.0601 13.1302 85.0201 14.3102 85.0201C15.4902 85.0201 16.4502 84.0601 16.4502 82.8801C16.4502 81.7001 15.4902 80.7401 14.3102 80.7401ZM14.3102 84.4101C13.4702 84.4101 12.7802 83.7301 12.7802 82.8801C12.7802 82.0301 13.4602 81.3501 14.3102 81.3501C15.1602 81.3501 15.8402 82.0301 15.8402 82.8801C15.8402 83.7301 15.1602 84.4101 14.3102 84.4101Z" fill="white"/>
<path d="M22.9402 80.1301H18.5302C18.2265 80.1301 17.9802 80.3764 17.9802 80.6801V85.0901C17.9802 85.3939 18.2265 85.6401 18.5302 85.6401H22.9402C23.244 85.6401 23.4902 85.3939 23.4902 85.0901V80.6801C23.4902 80.3764 23.244 80.1301 22.9402 80.1301Z" fill="#FF5538"/>
<path d="M20.7302 80.7401C19.5502 80.7401 18.5902 81.7001 18.5902 82.8801C18.5902 84.0601 19.5502 85.0201 20.7302 85.0201C21.9102 85.0201 22.8702 84.0601 22.8702 82.8801C22.8702 81.7001 21.9102 80.7401 20.7302 80.7401ZM20.7302 84.4101C19.8902 84.4101 19.2002 83.7301 19.2002 82.8801C19.2002 82.0301 19.8802 81.3501 20.7302 81.3501C21.5802 81.3501 22.2602 82.0301 22.2602 82.8801C22.2602 83.7301 21.5802 84.4101 20.7302 84.4101Z" fill="white"/>
<path d="M10.0903 80.1301H5.68025C5.37649 80.1301 5.13025 80.3764 5.13025 80.6801V85.0901C5.13025 85.3939 5.37649 85.6401 5.68025 85.6401H10.0903C10.394 85.6401 10.6402 85.3939 10.6402 85.0901V80.6801C10.6402 80.3764 10.394 80.1301 10.0903 80.1301Z" fill="#FACA1E"/>
<path d="M8.32019 82.8802L9.74019 81.4602C9.86019 81.3402 9.86019 81.1502 9.74019 81.0302C9.62019 80.9102 9.43019 80.9102 9.31019 81.0302L7.89019 82.4502L6.47019 81.0302C6.35019 80.9102 6.1602 80.9102 6.0402 81.0302C5.9202 81.1502 5.9202 81.3402 6.0402 81.4602L7.46019 82.8802L6.0402 84.3002C5.9202 84.4202 5.9202 84.6102 6.0402 84.7302C6.1602 84.8502 6.35019 84.8502 6.47019 84.7302L7.89019 83.3102L9.31019 84.7302C9.43019 84.8502 9.62019 84.8502 9.74019 84.7302C9.86019 84.6102 9.86019 84.4202 9.74019 84.3002L8.32019 82.8802Z" fill="white"/>
</svg>
