<svg width="235" height="91" viewBox="0 0 235 91" fill="none" xmlns="http://www.w3.org/2000/svg">
<rect x="135" y="48" width="3" height="7" fill="#FEBD33"/>
<rect x="184" y="17" width="3" height="13" fill="#FEBD33"/>
<rect x="162" y="16" width="3" height="13" fill="#FEBD33"/>
<rect x="202" y="22" width="6" height="13" fill="#FEBD33"/>
<rect x="65" y="27" width="13" height="4" fill="#FEBD33"/>
<rect x="86" y="34" width="13" height="4" fill="#FEBD33"/>
<rect x="93" y="39" width="15" height="3" fill="#FEBD33"/>
<rect x="1" y="39" width="6" height="3" fill="#FEBD33"/>
<rect x="7" y="31" width="8" height="3" fill="#FEBD33"/>
<rect x="10" y="39" width="8" height="3" fill="#FEBD33"/>
<rect x="26" y="40" width="4" height="7" fill="#FEBD33"/>
<rect x="51" y="41" width="4" height="7" fill="#FEBD33"/>
<rect x="39" y="38" width="4" height="7" fill="#FEBD33"/>
<rect x="70" y="10" width="4" height="7" fill="#FEBD33"/>
<rect x="75" y="16" width="4" height="7" fill="#FEBD33"/>
<rect x="77" y="32" width="7" height="3" fill="#FEBD33"/>
<rect x="91" y="28" width="7" height="3" fill="#FEBD33"/>
<rect x="63" y="36" width="12" height="3" fill="#FEBD33"/>
<rect x="153" y="32" width="3" height="7" fill="#FEBD33"/>
<rect x="136" y="34" width="5" height="3" fill="#FEBD33"/>
<rect x="144" y="41" width="3" height="6" fill="#FEBD33"/>
<rect x="131" y="42" width="3" height="6" fill="#FEBD33"/>
<rect x="137" y="16" width="4" height="5" fill="#FEBD33"/>
<rect x="153" y="24" width="4" height="8" fill="#FEBD33"/>
<rect x="188" y="36" width="4" height="8" fill="#FEBD33"/>
<rect x="201" y="8" width="4" height="4" fill="#FEBD33"/>
<rect x="228" y="49" width="5" height="5" fill="#FEBD33"/>
<rect x="224" y="42" width="5" height="5" fill="#FEBD33"/>
<rect x="175" y="30" width="3" height="7" fill="#FEBD33"/>
<rect x="179" y="30" width="3" height="7" fill="#FEBD33"/>
<rect x="170" y="17" width="3" height="7" fill="#FEBD33"/>
<rect x="157" y="15" width="3" height="5" fill="#FEBD33"/>
<rect x="126" y="23" width="9" height="4" fill="#FEBD33"/>
<rect x="174" y="29" width="8" height="9" fill="#FEBD33"/>
<rect x="208" y="45" width="7" height="7" fill="#FEBD33"/>
<rect x="222" y="55" width="7" height="7" fill="#FEBD33"/>
<rect x="225" y="36" width="9" height="5" fill="#FEBD33"/>
<rect x="153" y="42" width="13" height="5" fill="#FEBD33"/>
<path d="M17.5999 24.23V30.84H22.0099V38.92H33.0299V35.25H62.4099V24.23H69.0199V8.81H80.0399V24.23H110.03V57.16H123.98V13.22H143.81V24.24H151.15V9.55H166.57V15.43H188.36V28.65L192.77 35.99V48.47H200.24V0L209.05 6.61V42.59H221.66V33.78H234.88V71.97H-0.00012207V24.23H17.6299H17.5999ZM228.25 35.99H226.05V40.4H228.25V35.99ZM232.66 35.99H230.46V40.4H232.66V35.99ZM232.66 42.6H230.46V47.01H232.66V42.6ZM232.66 49.21H228.25V53.62H232.66V49.21ZM223.85 60.78H228.26V55.82H223.85V60.78ZM223.85 47.01H228.26V42.6H223.85V47.01ZM216.14 51.42H220.55V49.22H216.14V51.42ZM216.14 47.01H220.55V44.81H216.14V47.01ZM209.53 55.82H213.94V53.62H209.53V55.82ZM209.53 51.41H213.94V49.21H209.53V51.41ZM209.53 47H213.94V44.8H209.53V47ZM206.84 13.22H204.64V15.42H206.84V13.22ZM206.84 22.03H204.64V24.23H206.84V22.03ZM206.84 30.84H204.64V33.04H206.84V30.84ZM202.92 55.81H207.33V53.61H202.92V55.81ZM202.92 47H207.33V44.8H202.92V47ZM202.43 28.64H204.63V26.44H202.43V28.64ZM202.43 19.83H204.63V17.63H202.43V19.83ZM202.43 11.02H204.63V8.82H202.43V11.02ZM188.35 41.86H190.55V37.45H188.35V41.86ZM183.94 41.86H186.14V37.45H183.94V41.86ZM183.94 28.64H186.14V24.23H183.94V28.64ZM183.94 22.03H186.14V17.62H183.94V22.03ZM179.53 35.25H181.73V30.84H179.53V35.25ZM179.53 28.64H181.73V24.23H179.53V28.64ZM179.53 22.03H181.73V17.62H179.53V22.03ZM175.12 35.25H177.32V30.84H175.12V35.25ZM175.12 28.64H177.32V24.23H175.12V28.64ZM170.71 22.03H172.91V17.62H170.71V22.03ZM162.14 44.8H164.34V42.6H162.14V44.8ZM162.14 40.39H164.34V38.19H162.14V40.39ZM162.14 27.17H164.34V24.97H162.14V27.17ZM162.14 18.36H164.34V16.16H162.14V18.36ZM162.14 13.95H164.34V11.75H162.14V13.95ZM157.73 44.79H159.93V42.59H157.73V44.79ZM157.73 35.98H159.93V33.78H157.73V35.98ZM157.73 22.76H159.93V20.56H157.73V22.76ZM157.73 18.35H159.93V16.15H157.73V18.35ZM153.32 44.79H155.52V42.59H153.32V44.79ZM153.32 35.98H155.52V33.78H153.32V35.98ZM153.32 31.57H155.52V29.37H153.32V31.57ZM153.32 27.16H155.52V24.96H153.32V27.16ZM153.32 13.94H155.52V11.74H153.32V13.94ZM144.59 46.5H146.79V42.09H144.59V46.5ZM134.59 19.08H130.62V21.28H134.59V19.08ZM141.2 16.88H137.23V19.08H141.2V16.88ZM141.2 23.49H137.23V25.69H141.2V23.49ZM141.2 27.9H133.27V30.1H141.2V27.9ZM141.2 34.51H137.23V36.71H141.2V34.51ZM135.77 53.11H137.97V48.7H135.77V53.11ZM135.77 46.5H137.97V42.09H135.77V46.5ZM131.36 46.5H133.56V42.09H131.36V46.5ZM126.95 53.11H129.15V48.7H126.95V53.11ZM126.5 25.69H134.58V23.49H126.5V25.69ZM73.3799 11H71.1799V15.41H73.3799V11ZM73.3799 17.61H71.1799V22.02H73.3799V17.61ZM77.7899 11H75.5899V15.41H77.7899V11ZM77.7899 17.61H75.5899V22.02H77.7899V17.61ZM96.8799 27.89H92.4699V30.09H96.8799V27.89ZM95.4099 41.11H107.89V38.91H95.4099V41.11ZM89.9799 36.7H99.0899V34.5H103.06V32.3H99.0899V34.5H89.9799V36.7ZM84.3999 27.89H79.9899V30.09H84.3999V27.89ZM77.0599 34.5H83.6699V32.3H77.0599V34.5ZM64.5799 38.91H73.3899V36.71H64.5799V38.91ZM74.1299 34.5V32.3H69.7199V34.5H74.1299ZM64.5799 34.5H67.5199V32.3H64.5799V34.5ZM64.5799 30.09H77.7999V27.89H64.5799V30.09ZM56.4999 43.31H58.6999V38.9H56.4999V43.31ZM51.3599 46.98H53.5599V42.57H51.3599V46.98ZM48.4199 38.9H46.2199V43.31H48.4199V38.9ZM44.0099 50.65H46.2099V46.24H44.0099V50.65ZM41.8099 38.9H39.6099V43.31H41.8099V38.9ZM37.3999 50.65H39.5999V46.24H37.3999V50.65ZM26.3799 46.24H28.5799V41.28H26.3799V46.24ZM12.1799 46.24H14.3799V44.04H12.1799V46.24ZM12.1799 41.83H14.3799V39.63H12.1799V41.83ZM12.1799 37.42H14.3799V35.22H12.1799V37.42ZM12.1799 33.01H14.3799V30.81H12.1799V33.01ZM7.7699 46.23H9.96988V44.03H7.7699V46.23ZM7.7699 37.42H9.96988V35.22H7.7699V37.42ZM7.7699 33.01H9.96988V30.81H7.7699V33.01ZM7.7699 28.6H9.96988V26.4H7.7699V28.6ZM3.35989 46.23H5.55988V44.03H3.35989V46.23ZM3.35989 41.82H5.55988V39.62H3.35989V41.82ZM3.35989 33.01H5.55988V30.81H3.35989V33.01Z" fill="#C8DCED"/>
<path d="M17.5999 24.23V30.84H22.0099V38.92H33.0299V35.25H62.4099V24.23H69.0199V8.81H80.0399V24.23H110.03V57.16H123.98V13.22H143.81V24.24H151.15V9.55H166.57V15.43H188.36V28.65L192.77 35.99V48.47H200.24V0L209.05 6.61V42.59H221.66V33.78H234.88V71.97H-0.00012207V24.23H17.6299H17.5999ZM228.25 35.99H226.05V40.4H228.25V35.99ZM232.66 35.99H230.46V40.4H232.66V35.99ZM232.66 42.6H230.46V47.01H232.66V42.6ZM232.66 49.21H228.25V53.62H232.66V49.21ZM223.85 60.78H228.26V55.82H223.85V60.78ZM223.85 47.01H228.26V42.6H223.85V47.01ZM216.14 51.42H220.55V49.22H216.14V51.42ZM216.14 47.01H220.55V44.81H216.14V47.01ZM209.53 55.82H213.94V53.62H209.53V55.82ZM209.53 51.41H213.94V49.21H209.53V51.41ZM209.53 47H213.94V44.8H209.53V47ZM206.84 13.22H204.64V15.42H206.84V13.22ZM206.84 22.03H204.64V24.23H206.84V22.03ZM206.84 30.84H204.64V33.04H206.84V30.84ZM202.92 55.81H207.33V53.61H202.92V55.81ZM202.92 47H207.33V44.8H202.92V47ZM202.43 28.64H204.63V26.44H202.43V28.64ZM202.43 19.83H204.63V17.63H202.43V19.83ZM202.43 11.02H204.63V8.82H202.43V11.02ZM188.35 41.86H190.55V37.45H188.35V41.86ZM183.94 41.86H186.14V37.45H183.94V41.86ZM183.94 28.64H186.14V24.23H183.94V28.64ZM183.94 22.03H186.14V17.62H183.94V22.03ZM179.53 35.25H181.73V30.84H179.53V35.25ZM179.53 28.64H181.73V24.23H179.53V28.64ZM179.53 22.03H181.73V17.62H179.53V22.03ZM175.12 35.25H177.32V30.84H175.12V35.25ZM175.12 28.64H177.32V24.23H175.12V28.64ZM170.71 22.03H172.91V17.62H170.71V22.03ZM162.14 44.8H164.34V42.6H162.14V44.8ZM162.14 40.39H164.34V38.19H162.14V40.39ZM162.14 27.17H164.34V24.97H162.14V27.17ZM162.14 18.36H164.34V16.16H162.14V18.36ZM162.14 13.95H164.34V11.75H162.14V13.95ZM157.73 44.79H159.93V42.59H157.73V44.79ZM157.73 35.98H159.93V33.78H157.73V35.98ZM157.73 22.76H159.93V20.56H157.73V22.76ZM157.73 18.35H159.93V16.15H157.73V18.35ZM153.32 44.79H155.52V42.59H153.32V44.79ZM153.32 35.98H155.52V33.78H153.32V35.98ZM153.32 31.57H155.52V29.37H153.32V31.57ZM153.32 27.16H155.52V24.96H153.32V27.16ZM153.32 13.94H155.52V11.74H153.32V13.94ZM144.59 46.5H146.79V42.09H144.59V46.5ZM134.59 19.08H130.62V21.28H134.59V19.08ZM141.2 16.88H137.23V19.08H141.2V16.88ZM141.2 23.49H137.23V25.69H141.2V23.49ZM141.2 27.9H133.27V30.1H141.2V27.9ZM141.2 34.51H137.23V36.71H141.2V34.51ZM135.77 53.11H137.97V48.7H135.77V53.11ZM135.77 46.5H137.97V42.09H135.77V46.5ZM131.36 46.5H133.56V42.09H131.36V46.5ZM126.95 53.11H129.15V48.7H126.95V53.11ZM126.5 25.69H134.58V23.49H126.5V25.69ZM73.3799 11H71.1799V15.41H73.3799V11ZM73.3799 17.61H71.1799V22.02H73.3799V17.61ZM77.7899 11H75.5899V15.41H77.7899V11ZM77.7899 17.61H75.5899V22.02H77.7899V17.61ZM96.8799 27.89H92.4699V30.09H96.8799V27.89ZM95.4099 41.11H107.89V38.91H95.4099V41.11ZM89.9799 36.7H99.0899V34.5H103.06V32.3H99.0899V34.5H89.9799V36.7ZM84.3999 27.89H79.9899V30.09H84.3999V27.89ZM77.0599 34.5H83.6699V32.3H77.0599V34.5ZM64.5799 38.91H73.3899V36.71H64.5799V38.91ZM74.1299 34.5V32.3H69.7199V34.5H74.1299ZM64.5799 34.5H67.5199V32.3H64.5799V34.5ZM64.5799 30.09H77.7999V27.89H64.5799V30.09ZM56.4999 43.31H58.6999V38.9H56.4999V43.31ZM51.3599 46.98H53.5599V42.57H51.3599V46.98ZM48.4199 38.9H46.2199V43.31H48.4199V38.9ZM44.0099 50.65H46.2099V46.24H44.0099V50.65ZM41.8099 38.9H39.6099V43.31H41.8099V38.9ZM37.3999 50.65H39.5999V46.24H37.3999V50.65ZM26.3799 46.24H28.5799V41.28H26.3799V46.24ZM12.1799 46.24H14.3799V44.04H12.1799V46.24ZM12.1799 41.83H14.3799V39.63H12.1799V41.83ZM12.1799 37.42H14.3799V35.22H12.1799V37.42ZM12.1799 33.01H14.3799V30.81H12.1799V33.01ZM7.7699 46.23H9.96988V44.03H7.7699V46.23ZM7.7699 37.42H9.96988V35.22H7.7699V37.42ZM7.7699 33.01H9.96988V30.81H7.7699V33.01ZM7.7699 28.6H9.96988V26.4H7.7699V28.6ZM3.35989 46.23H5.55988V44.03H3.35989V46.23ZM3.35989 41.82H5.55988V39.62H3.35989V41.82ZM3.35989 33.01H5.55988V30.81H3.35989V33.01Z" fill="black" fill-opacity="0.7"/>
<path d="M155.35 68.6202C155.73 67.9202 155.78 67.0502 155.42 66.2802C155.4 66.2302 155.37 66.1802 155.35 66.1402C154.81 65.0602 153.62 64.5202 152.49 64.7502C152.41 63.4702 151.35 62.4502 150.05 62.4502C149.11 62.4502 148.29 62.9802 147.88 63.7602C147.47 62.9802 146.65 62.4502 145.71 62.4502C144.77 62.4502 143.95 62.9802 143.54 63.7602C143.13 62.9802 142.31 62.4502 141.37 62.4502C140.43 62.4502 139.61 62.9802 139.2 63.7602C138.79 62.9802 137.97 62.4502 137.03 62.4502C136.09 62.4502 135.27 62.9802 134.86 63.7602C134.45 62.9802 133.63 62.4502 132.69 62.4502C131.75 62.4502 130.93 62.9802 130.52 63.7602C130.11 62.9802 129.29 62.4502 128.35 62.4502C127.41 62.4502 126.59 62.9802 126.18 63.7602C125.77 62.9802 124.95 62.4502 124.01 62.4502C123.07 62.4502 122.25 62.9802 121.84 63.7602C121.43 62.9802 120.61 62.4502 119.67 62.4502C118.37 62.4502 117.31 63.4702 117.23 64.7502C116.1 64.5202 114.91 65.0602 114.37 66.1402C114.35 66.1902 114.32 66.2302 114.3 66.2802C113.93 67.0602 113.99 67.9202 114.37 68.6202C113.46 68.9902 112.82 69.8802 112.82 70.9202C112.82 72.2902 113.93 73.4002 115.3 73.4002H154.41C155.78 73.4002 156.89 72.2902 156.89 70.9202C156.89 69.8802 156.25 68.9902 155.34 68.6202H155.35Z" fill="#80A62C"/>
<path d="M155.35 68.6202C155.73 67.9202 155.78 67.0502 155.42 66.2802C155.4 66.2302 155.37 66.1802 155.35 66.1402C154.81 65.0602 153.62 64.5202 152.49 64.7502C152.41 63.4702 151.35 62.4502 150.05 62.4502C149.11 62.4502 148.29 62.9802 147.88 63.7602C147.47 62.9802 146.65 62.4502 145.71 62.4502C144.77 62.4502 143.95 62.9802 143.54 63.7602C143.13 62.9802 142.31 62.4502 141.37 62.4502C140.43 62.4502 139.61 62.9802 139.2 63.7602C138.79 62.9802 137.97 62.4502 137.03 62.4502C136.09 62.4502 135.27 62.9802 134.86 63.7602C134.45 62.9802 133.63 62.4502 132.69 62.4502C131.75 62.4502 130.93 62.9802 130.52 63.7602C130.11 62.9802 129.29 62.4502 128.35 62.4502C127.41 62.4502 126.59 62.9802 126.18 63.7602C125.77 62.9802 124.95 62.4502 124.01 62.4502C123.07 62.4502 122.25 62.9802 121.84 63.7602C121.43 62.9802 120.61 62.4502 119.67 62.4502C118.37 62.4502 117.31 63.4702 117.23 64.7502C116.1 64.5202 114.91 65.0602 114.37 66.1402C114.35 66.1902 114.32 66.2302 114.3 66.2802C113.93 67.0602 113.99 67.9202 114.37 68.6202C113.46 68.9902 112.82 69.8802 112.82 70.9202C112.82 72.2902 113.93 73.4002 115.3 73.4002H154.41C155.78 73.4002 156.89 72.2902 156.89 70.9202C156.89 69.8802 156.25 68.9902 155.34 68.6202H155.35Z" fill="black" fill-opacity="0.7"/>
<path d="M42.8303 66.3198C47.6959 66.3198 51.6403 62.3755 51.6403 57.5098C51.6403 52.6442 47.6959 48.6998 42.8303 48.6998C37.9646 48.6998 34.0203 52.6442 34.0203 57.5098C34.0203 62.3755 37.9646 66.3198 42.8303 66.3198Z" fill="#95C133"/>
<path d="M42.8303 66.3198C47.6959 66.3198 51.6403 62.3755 51.6403 57.5098C51.6403 52.6442 47.6959 48.6998 42.8303 48.6998C37.9646 48.6998 34.0203 52.6442 34.0203 57.5098C34.0203 62.3755 37.9646 66.3198 42.8303 66.3198Z" fill="black" fill-opacity="0.7"/>
<path d="M29.9003 67.7399C34.766 67.7399 38.7103 63.7955 38.7103 58.9299C38.7103 54.0642 34.766 50.1199 29.9003 50.1199C25.0347 50.1199 21.0903 54.0642 21.0903 58.9299C21.0903 63.7955 25.0347 67.7399 29.9003 67.7399Z" fill="#95C133"/>
<path d="M29.9003 67.7399C34.766 67.7399 38.7103 63.7955 38.7103 58.9299C38.7103 54.0642 34.766 50.1199 29.9003 50.1199C25.0347 50.1199 21.0903 54.0642 21.0903 58.9299C21.0903 63.7955 25.0347 67.7399 29.9003 67.7399Z" fill="black" fill-opacity="0.7"/>
<path d="M36.3403 54.6898C40.2339 54.6898 43.3903 51.5335 43.3903 47.6398C43.3903 43.7462 40.2339 40.5898 36.3403 40.5898C32.4467 40.5898 29.2903 43.7462 29.2903 47.6398C29.2903 51.5335 32.4467 54.6898 36.3403 54.6898Z" fill="#95C133"/>
<path d="M36.3403 54.6898C40.2339 54.6898 43.3903 51.5335 43.3903 47.6398C43.3903 43.7462 40.2339 40.5898 36.3403 40.5898C32.4467 40.5898 29.2903 43.7462 29.2903 47.6398C29.2903 51.5335 32.4467 54.6898 36.3403 54.6898Z" fill="black" fill-opacity="0.7"/>
<path d="M38.6004 70.2098C41.7153 70.2098 44.2405 67.6847 44.2405 64.5698C44.2405 61.4549 41.7153 58.9298 38.6004 58.9298C35.4856 58.9298 32.9604 61.4549 32.9604 64.5698C32.9604 67.6847 35.4856 70.2098 38.6004 70.2098Z" fill="#95C133"/>
<path d="M38.6004 70.2098C41.7153 70.2098 44.2405 67.6847 44.2405 64.5698C44.2405 61.4549 41.7153 58.9298 38.6004 58.9298C35.4856 58.9298 32.9604 61.4549 32.9604 64.5698C32.9604 67.6847 35.4856 70.2098 38.6004 70.2098Z" fill="black" fill-opacity="0.7"/>
<path d="M36.3403 54.1499L38.1003 75.8499H34.5803L36.3403 54.1499Z" fill="#B09069"/>
<path d="M36.3403 54.1499L38.1003 75.8499H34.5803L36.3403 54.1499Z" fill="black" fill-opacity="0.7"/>
<path d="M103.94 71.0699C104.32 70.3699 104.37 69.4999 104.01 68.7299C103.99 68.6799 103.96 68.6299 103.94 68.5899C103.4 67.5099 102.21 66.9699 101.08 67.1999C101 65.9199 99.9402 64.8999 98.6402 64.8999C97.7002 64.8999 96.8802 65.4299 96.4702 66.2099C96.0602 65.4299 95.2402 64.8999 94.3002 64.8999C93.3602 64.8999 92.5401 65.4299 92.1301 66.2099C91.7201 65.4299 90.9002 64.8999 89.9602 64.8999C89.0202 64.8999 88.2002 65.4299 87.7902 66.2099C87.3802 65.4299 86.5602 64.8999 85.6202 64.8999C84.6802 64.8999 83.8601 65.4299 83.4501 66.2099C83.0401 65.4299 82.2202 64.8999 81.2802 64.8999C80.3402 64.8999 79.5202 65.4299 79.1102 66.2099C78.7002 65.4299 77.8802 64.8999 76.9402 64.8999C76.0002 64.8999 75.1801 65.4299 74.7701 66.2099C74.3601 65.4299 73.5402 64.8999 72.6002 64.8999C71.6602 64.8999 70.8402 65.4299 70.4302 66.2099C70.0202 65.4299 69.2002 64.8999 68.2602 64.8999C66.9602 64.8999 65.9002 65.9199 65.8202 67.1999C64.6902 66.9699 63.5002 67.5099 62.9602 68.5899C62.9402 68.6399 62.9102 68.6799 62.8902 68.7299C62.5202 69.5099 62.5802 70.3699 62.9602 71.0699C62.0502 71.4399 61.4102 72.3299 61.4102 73.3699C61.4102 74.7399 62.5202 75.8499 63.8902 75.8499H103C104.37 75.8499 105.48 74.7399 105.48 73.3699C105.48 72.3299 104.84 71.4399 103.93 71.0699H103.94Z" fill="#80A62C"/>
<path d="M103.94 71.0699C104.32 70.3699 104.37 69.4999 104.01 68.7299C103.99 68.6799 103.96 68.6299 103.94 68.5899C103.4 67.5099 102.21 66.9699 101.08 67.1999C101 65.9199 99.9402 64.8999 98.6402 64.8999C97.7002 64.8999 96.8802 65.4299 96.4702 66.2099C96.0602 65.4299 95.2402 64.8999 94.3002 64.8999C93.3602 64.8999 92.5401 65.4299 92.1301 66.2099C91.7201 65.4299 90.9002 64.8999 89.9602 64.8999C89.0202 64.8999 88.2002 65.4299 87.7902 66.2099C87.3802 65.4299 86.5602 64.8999 85.6202 64.8999C84.6802 64.8999 83.8601 65.4299 83.4501 66.2099C83.0401 65.4299 82.2202 64.8999 81.2802 64.8999C80.3402 64.8999 79.5202 65.4299 79.1102 66.2099C78.7002 65.4299 77.8802 64.8999 76.9402 64.8999C76.0002 64.8999 75.1801 65.4299 74.7701 66.2099C74.3601 65.4299 73.5402 64.8999 72.6002 64.8999C71.6602 64.8999 70.8402 65.4299 70.4302 66.2099C70.0202 65.4299 69.2002 64.8999 68.2602 64.8999C66.9602 64.8999 65.9002 65.9199 65.8202 67.1999C64.6902 66.9699 63.5002 67.5099 62.9602 68.5899C62.9402 68.6399 62.9102 68.6799 62.8902 68.7299C62.5202 69.5099 62.5802 70.3699 62.9602 71.0699C62.0502 71.4399 61.4102 72.3299 61.4102 73.3699C61.4102 74.7399 62.5202 75.8499 63.8902 75.8499H103C104.37 75.8499 105.48 74.7399 105.48 73.3699C105.48 72.3299 104.84 71.4399 103.93 71.0699H103.94Z" fill="black" fill-opacity="0.7"/>
<path d="M130.95 82.7H121.16L122.34 90.53H129.78L130.95 82.7Z" fill="#876B5C"/>
<path d="M130.95 82.7H121.16L122.34 90.53H129.78L130.95 82.7Z" fill="black" fill-opacity="0.7"/>
<path d="M131.17 76.84L130.14 78.04C130.02 78.19 129.79 78.04 129.85 77.87L131.17 74.1C131.33 73.63 130.74 73.28 130.43 73.67L129.39 74.95C129.27 75.1 129.03 74.96 129.1 74.78L130.39 70.97C130.55 70.51 129.97 70.16 129.65 70.53L128.83 71.48C128.71 71.62 128.49 71.5 128.54 71.32L129.28 68.15C129.39 67.67 128.77 67.39 128.5 67.8L128.17 68.31C128.07 68.46 127.85 68.38 127.86 68.2L128.04 65.37C128.07 64.89 127.42 64.74 127.25 65.18L127 65.8C126.93 65.97 126.69 65.93 126.67 65.75L126.49 63.51C126.45 62.97 125.68 62.97 125.64 63.51L125.46 65.75C125.45 65.93 125.2 65.97 125.13 65.8L124.88 65.18C124.7 64.74 124.06 64.89 124.09 65.37L124.27 68.2C124.28 68.38 124.05 68.46 123.96 68.31L123.63 67.8C123.36 67.39 122.73 67.67 122.85 68.15L123.59 71.32C123.63 71.5 123.41 71.61 123.3 71.48L122.48 70.53C122.17 70.16 121.59 70.51 121.74 70.97L123.03 74.78C123.09 74.96 122.86 75.1 122.74 74.95L121.7 73.67C121.39 73.29 120.79 73.64 120.96 74.1L122.28 77.87C122.34 78.05 122.11 78.19 121.99 78.04L120.96 76.84C120.64 76.46 120.05 76.84 120.23 77.3L122.34 82.7H129.8L131.91 77.3C132.09 76.84 131.5 76.46 131.18 76.84H131.17Z" fill="#95C133"/>
<path d="M131.17 76.84L130.14 78.04C130.02 78.19 129.79 78.04 129.85 77.87L131.17 74.1C131.33 73.63 130.74 73.28 130.43 73.67L129.39 74.95C129.27 75.1 129.03 74.96 129.1 74.78L130.39 70.97C130.55 70.51 129.97 70.16 129.65 70.53L128.83 71.48C128.71 71.62 128.49 71.5 128.54 71.32L129.28 68.15C129.39 67.67 128.77 67.39 128.5 67.8L128.17 68.31C128.07 68.46 127.85 68.38 127.86 68.2L128.04 65.37C128.07 64.89 127.42 64.74 127.25 65.18L127 65.8C126.93 65.97 126.69 65.93 126.67 65.75L126.49 63.51C126.45 62.97 125.68 62.97 125.64 63.51L125.46 65.75C125.45 65.93 125.2 65.97 125.13 65.8L124.88 65.18C124.7 64.74 124.06 64.89 124.09 65.37L124.27 68.2C124.28 68.38 124.05 68.46 123.96 68.31L123.63 67.8C123.36 67.39 122.73 67.67 122.85 68.15L123.59 71.32C123.63 71.5 123.41 71.61 123.3 71.48L122.48 70.53C122.17 70.16 121.59 70.51 121.74 70.97L123.03 74.78C123.09 74.96 122.86 75.1 122.74 74.95L121.7 73.67C121.39 73.29 120.79 73.64 120.96 74.1L122.28 77.87C122.34 78.05 122.11 78.19 121.99 78.04L120.96 76.84C120.64 76.46 120.05 76.84 120.23 77.3L122.34 82.7H129.8L131.91 77.3C132.09 76.84 131.5 76.46 131.18 76.84H131.17Z" fill="black" fill-opacity="0.7"/>
<path d="M85.9099 45.86H84.6899V54.43H85.9099V45.86Z" fill="#636363"/>
<path d="M85.9099 45.86H84.6899V54.43H85.9099V45.86Z" fill="black" fill-opacity="0.7"/>
<path d="M83.2198 46.0001H81.9998V54.5701H83.2198V46.0001Z" fill="#636363"/>
<path d="M83.2198 46.0001H81.9998V54.5701H83.2198V46.0001Z" fill="black" fill-opacity="0.7"/>
<path d="M88.3599 45.86H87.1399V54.43H88.3599V45.86Z" fill="#636363"/>
<path d="M88.3599 45.86H87.1399V54.43H88.3599V45.86Z" fill="black" fill-opacity="0.7"/>
<path d="M93.25 45.86H92.03V54.43H93.25V45.86Z" fill="#636363"/>
<path d="M93.25 45.86H92.03V54.43H93.25V45.86Z" fill="black" fill-opacity="0.7"/>
<path d="M90.8001 45.86H89.5801V54.43H90.8001V45.86Z" fill="#636363"/>
<path d="M90.8001 45.86H89.5801V54.43H90.8001V45.86Z" fill="black" fill-opacity="0.7"/>
<path d="M95.7 45.86H94.48V54.43H95.7V45.86Z" fill="#636363"/>
<path d="M95.7 45.86H94.48V54.43H95.7V45.86Z" fill="black" fill-opacity="0.7"/>
<path d="M98.1499 45.86H96.9299V54.43H98.1499V45.86Z" fill="#636363"/>
<path d="M98.1499 45.86H96.9299V54.43H98.1499V45.86Z" fill="black" fill-opacity="0.7"/>
<path d="M83.46 56.26H82.24V90.53H83.46V56.26Z" fill="#C1C1C1"/>
<path d="M83.46 56.26H82.24V90.53H83.46V56.26Z" fill="black" fill-opacity="0.7"/>
<path d="M98.1499 56.26H96.9299V90.53H98.1499V56.26Z" fill="#C1C1C1"/>
<path d="M98.1499 56.26H96.9299V90.53H98.1499V56.26Z" fill="black" fill-opacity="0.7"/>
<path d="M97.73 54L96 54.62L108.9 90.72H110.85L97.73 54Z" fill="#FF5538"/>
<path d="M97.73 54L96 54.62L108.9 90.72H110.85L97.73 54Z" fill="black" fill-opacity="0.7"/>
<path d="M100.91 45.25H81.02V47.08H99.61L115.13 90.53H117.08L100.91 45.25Z" fill="#636363"/>
<path d="M100.91 45.25H81.02V47.08H99.61L115.13 90.53H117.08L100.91 45.25Z" fill="black" fill-opacity="0.7"/>
<path d="M87.03 53.8101H83.32C81.07 53.8101 78.94 54.8401 77.55 56.6201L55.85 84.2301C55.15 85.1201 54.1 85.6301 52.96 85.6301H49.19C46.49 85.6301 44.29 87.8201 44.29 90.5301H52.96C55.61 90.5301 58.06 89.3401 59.7 87.2601L82.22 58.6001C83.39 57.1101 85.14 56.2601 87.03 56.2601H98.15V53.8101H87.03Z" fill="#FF5538"/>
<path d="M87.03 53.8101H83.32C81.07 53.8101 78.94 54.8401 77.55 56.6201L55.85 84.2301C55.15 85.1201 54.1 85.6301 52.96 85.6301H49.19C46.49 85.6301 44.29 87.8201 44.29 90.5301H52.96C55.61 90.5301 58.06 89.3401 59.7 87.2601L82.22 58.6001C83.39 57.1101 85.14 56.2601 87.03 56.2601H98.15V53.8101H87.03Z" fill="black" fill-opacity="0.7"/>
<path d="M170.37 76.2501L165.05 77.6801L162.87 71.9301L169.37 70.1801L170.37 76.2501Z" fill="#FACA1E"/>
<path d="M170.37 76.2501L165.05 77.6801L162.87 71.9301L169.37 70.1801L170.37 76.2501Z" fill="black" fill-opacity="0.7"/>
<path d="M169.504 69.5119L162.414 71.4116L162.572 72.0008L169.662 70.1011L169.504 69.5119Z" fill="#FDEAA5"/>
<path d="M169.504 69.5119L162.414 71.4116L162.572 72.0008L169.662 70.1011L169.504 69.5119Z" fill="black" fill-opacity="0.7"/>
<path d="M164.86 66.3301C163.06 66.8101 162.11 69.0501 162.72 71.3401L163.07 71.2401C162.51 69.1501 163.36 67.1101 164.95 66.6801C166.55 66.2501 168.3 67.6001 168.86 69.6901L169.21 69.5901C168.6 67.3001 166.65 65.8401 164.85 66.3201L164.86 66.3301Z" fill="#636363"/>
<path d="M164.86 66.3301C163.06 66.8101 162.11 69.0501 162.72 71.3401L163.07 71.2401C162.51 69.1501 163.36 67.1101 164.95 66.6801C166.55 66.2501 168.3 67.6001 168.86 69.6901L169.21 69.5901C168.6 67.3001 166.65 65.8401 164.85 66.3201L164.86 66.3301Z" fill="black" fill-opacity="0.7"/>
<path d="M165.55 66.7801L164.49 67.0701C164.29 67.1201 164.09 67.0101 164.04 66.8101C163.99 66.6101 164.1 66.4101 164.3 66.3601L165.36 66.0701C165.56 66.0201 165.76 66.1301 165.81 66.3301C165.86 66.5301 165.75 66.7301 165.55 66.7801Z" fill="white"/>
<path d="M165.55 66.7801L164.49 67.0701C164.29 67.1201 164.09 67.0101 164.04 66.8101C163.99 66.6101 164.1 66.4101 164.3 66.3601L165.36 66.0701C165.56 66.0201 165.76 66.1301 165.81 66.3301C165.86 66.5301 165.75 66.7301 165.55 66.7801Z" fill="black" fill-opacity="0.7"/>
<path d="M150.59 74.01V75.7C150.59 77.35 151.29 78.92 152.51 80.03L153.01 80.49C153.18 80.65 153.41 80.74 153.65 80.74C153.89 80.74 154.11 80.65 154.29 80.49L154.79 80.03C156.01 78.92 156.71 77.35 156.71 75.7V74.01H150.59Z" fill="#A1A1A1"/>
<path d="M150.59 74.01V75.7C150.59 77.35 151.29 78.92 152.51 80.03L153.01 80.49C153.18 80.65 153.41 80.74 153.65 80.74C153.89 80.74 154.11 80.65 154.29 80.49L154.79 80.03C156.01 78.92 156.71 77.35 156.71 75.7V74.01H150.59Z" fill="black" fill-opacity="0.7"/>
<path d="M153.04 69.3601C153.04 72.6201 153.18 73.8601 153.46 77.1101L153.52 77.8301C153.52 77.8901 153.58 77.9301 153.65 77.9301C153.72 77.9301 153.78 77.8901 153.78 77.8301L153.84 77.1101C154.12 73.8601 154.26 72.6201 154.26 69.3601H153.04Z" fill="#C1C1C1"/>
<path d="M153.04 69.3601C153.04 72.6201 153.18 73.8601 153.46 77.1101L153.52 77.8301C153.52 77.8901 153.58 77.9301 153.65 77.9301C153.72 77.9301 153.78 77.8901 153.78 77.8301L153.84 77.1101C154.12 73.8601 154.26 72.6201 154.26 69.3601H153.04Z" fill="black" fill-opacity="0.7"/>
<path d="M156.27 67.1101C156.11 66.8401 155.83 66.6901 155.48 66.6901H153.65H151.82C151.47 66.6901 151.19 66.8401 151.03 67.1101C150.84 67.4301 150.85 67.8801 151.07 68.2701C151.61 69.2401 152.45 69.7201 153.65 69.7501C154.84 69.7201 155.69 69.2301 156.23 68.2701C156.44 67.8901 156.46 67.4301 156.27 67.1101ZM155.61 67.9301C155.19 68.6801 154.59 69.0201 153.65 69.0501C152.71 69.0201 152.1 68.6801 151.69 67.9301C151.59 67.7501 151.59 67.5601 151.64 67.4701C151.65 67.4501 151.68 67.4001 151.82 67.4001H155.48C155.62 67.4001 155.65 67.4501 155.66 67.4701C155.71 67.5601 155.71 67.7501 155.61 67.9301Z" fill="#FF5538"/>
<path d="M156.27 67.1101C156.11 66.8401 155.83 66.6901 155.48 66.6901H153.65H151.82C151.47 66.6901 151.19 66.8401 151.03 67.1101C150.84 67.4301 150.85 67.8801 151.07 68.2701C151.61 69.2401 152.45 69.7201 153.65 69.7501C154.84 69.7201 155.69 69.2301 156.23 68.2701C156.44 67.8901 156.46 67.4301 156.27 67.1101ZM155.61 67.9301C155.19 68.6801 154.59 69.0201 153.65 69.0501C152.71 69.0201 152.1 68.6801 151.69 67.9301C151.59 67.7501 151.59 67.5601 151.64 67.4701C151.65 67.4501 151.68 67.4001 151.82 67.4001H155.48C155.62 67.4001 155.65 67.4501 155.66 67.4701C155.71 67.5601 155.71 67.7501 155.61 67.9301Z" fill="black" fill-opacity="0.7"/>
<path d="M186.28 80.7401H134.87V83.1901H186.28V80.7401Z" fill="#7C8DD2"/>
<path d="M186.28 80.7401H134.87V83.1901H186.28V80.7401Z" fill="black" fill-opacity="0.7"/>
<path d="M185.05 83.1901H136.09L137.32 90.5301H183.83L185.05 83.1901Z" fill="#5B70C7"/>
<path d="M185.05 83.1901H136.09L137.32 90.5301H183.83L185.05 83.1901Z" fill="black" fill-opacity="0.7"/>
<path d="M168.49 73.4001C164.08 73.4001 160.04 74.4801 156.89 76.2901C155.32 77.1901 153.43 77.4001 151.71 76.8301C150.19 76.3301 148.49 76.0501 146.69 76.0501C141.99 76.0501 137.95 77.9701 136.1 80.7501H185.06C182.17 76.4101 175.84 73.4101 168.5 73.4101L168.49 73.4001Z" fill="#FEEEDD"/>
<path d="M168.49 73.4001C164.08 73.4001 160.04 74.4801 156.89 76.2901C155.32 77.1901 153.43 77.4001 151.71 76.8301C150.19 76.3301 148.49 76.0501 146.69 76.0501C141.99 76.0501 137.95 77.9701 136.1 80.7501H185.06C182.17 76.4101 175.84 73.4101 168.5 73.4101L168.49 73.4001Z" fill="black" fill-opacity="0.7"/>
<path d="M1.46045 90.5301H3.91045V66.0501C3.91045 65.3701 3.36045 64.8301 2.69045 64.8301C2.01045 64.8301 1.47045 65.3801 1.47045 66.0501V90.5301H1.46045Z" fill="#B09069"/>
<path d="M1.46045 90.5301H3.91045V66.0501C3.91045 65.3701 3.36045 64.8301 2.69045 64.8301C2.01045 64.8301 1.47045 65.3801 1.47045 66.0501V90.5301H1.46045Z" fill="black" fill-opacity="0.7"/>
<path d="M24.7104 66.0501V90.5301H27.1604V66.0501C27.1604 65.3701 26.6104 64.8301 25.9404 64.8301C25.2604 64.8301 24.7205 65.3801 24.7205 66.0501H24.7104Z" fill="#B09069"/>
<path d="M24.7104 66.0501V90.5301H27.1604V66.0501C27.1604 65.3701 26.6104 64.8301 25.9404 64.8301C25.2604 64.8301 24.7205 65.3801 24.7205 66.0501H24.7104Z" fill="black" fill-opacity="0.7"/>
<path d="M27.4705 70.9501H1.15047C0.640469 70.9501 0.230469 70.5401 0.230469 70.0301C0.230469 69.5201 0.640469 69.1101 1.15047 69.1101H27.4705C27.9805 69.1101 28.3905 69.5201 28.3905 70.0301C28.3905 70.5401 27.9805 70.9501 27.4705 70.9501Z" fill="#876B5C"/>
<path d="M27.4705 70.9501H1.15047C0.640469 70.9501 0.230469 70.5401 0.230469 70.0301C0.230469 69.5201 0.640469 69.1101 1.15047 69.1101H27.4705C27.9805 69.1101 28.3905 69.5201 28.3905 70.0301C28.3905 70.5401 27.9805 70.9501 27.4705 70.9501Z" fill="black" fill-opacity="0.7"/>
<path d="M27.4705 77.38H1.15047C0.640469 77.38 0.230469 76.97 0.230469 76.46C0.230469 75.95 0.640469 75.54 1.15047 75.54H27.4705C27.9805 75.54 28.3905 75.95 28.3905 76.46C28.3905 76.97 27.9805 77.38 27.4705 77.38Z" fill="#876B5C"/>
<path d="M27.4705 77.38H1.15047C0.640469 77.38 0.230469 76.97 0.230469 76.46C0.230469 75.95 0.640469 75.54 1.15047 75.54H27.4705C27.9805 75.54 28.3905 75.95 28.3905 76.46C28.3905 76.97 27.9805 77.38 27.4705 77.38Z" fill="black" fill-opacity="0.7"/>
<path d="M27.4705 83.8001H1.15047C0.640469 83.8001 0.230469 83.3901 0.230469 82.8801C0.230469 82.3701 0.640469 81.9601 1.15047 81.9601H27.4705C27.9805 81.9601 28.3905 82.3701 28.3905 82.8801C28.3905 83.3901 27.9805 83.8001 27.4705 83.8001Z" fill="#876B5C"/>
<path d="M27.4705 83.8001H1.15047C0.640469 83.8001 0.230469 83.3901 0.230469 82.8801C0.230469 82.3701 0.640469 81.9601 1.15047 81.9601H27.4705C27.9805 81.9601 28.3905 82.3701 28.3905 82.8801C28.3905 83.3901 27.9805 83.8001 27.4705 83.8001Z" fill="black" fill-opacity="0.7"/>
<path d="M16.5105 67.28H12.1005C11.7968 67.28 11.5505 67.5263 11.5505 67.83V72.24C11.5505 72.5438 11.7968 72.79 12.1005 72.79H16.5105C16.8143 72.79 17.0605 72.5438 17.0605 72.24V67.83C17.0605 67.5263 16.8143 67.28 16.5105 67.28Z" fill="#FF5538"/>
<path d="M16.5105 67.28H12.1005C11.7968 67.28 11.5505 67.5263 11.5505 67.83V72.24C11.5505 72.5438 11.7968 72.79 12.1005 72.79H16.5105C16.8143 72.79 17.0605 72.5438 17.0605 72.24V67.83C17.0605 67.5263 16.8143 67.28 16.5105 67.28Z" fill="black" fill-opacity="0.7"/>
<path d="M14.3107 67.89C13.1307 67.89 12.1707 68.85 12.1707 70.03C12.1707 71.21 13.1307 72.17 14.3107 72.17C15.4907 72.17 16.4507 71.21 16.4507 70.03C16.4507 68.85 15.4907 67.89 14.3107 67.89ZM14.3107 71.56C13.4707 71.56 12.7807 70.88 12.7807 70.03C12.7807 69.18 13.4607 68.5 14.3107 68.5C15.1607 68.5 15.8407 69.18 15.8407 70.03C15.8407 70.88 15.1607 71.56 14.3107 71.56Z" fill="white"/>
<path d="M14.3107 67.89C13.1307 67.89 12.1707 68.85 12.1707 70.03C12.1707 71.21 13.1307 72.17 14.3107 72.17C15.4907 72.17 16.4507 71.21 16.4507 70.03C16.4507 68.85 15.4907 67.89 14.3107 67.89ZM14.3107 71.56C13.4707 71.56 12.7807 70.88 12.7807 70.03C12.7807 69.18 13.4607 68.5 14.3107 68.5C15.1607 68.5 15.8407 69.18 15.8407 70.03C15.8407 70.88 15.1607 71.56 14.3107 71.56Z" fill="black" fill-opacity="0.7"/>
<path d="M22.9405 73.7001H18.5305C18.2267 73.7001 17.9805 73.9463 17.9805 74.2501V78.6601C17.9805 78.9638 18.2267 79.2101 18.5305 79.2101H22.9405C23.2442 79.2101 23.4905 78.9638 23.4905 78.6601V74.2501C23.4905 73.9463 23.2442 73.7001 22.9405 73.7001Z" fill="#FF5538"/>
<path d="M22.9405 73.7001H18.5305C18.2267 73.7001 17.9805 73.9463 17.9805 74.2501V78.6601C17.9805 78.9638 18.2267 79.2101 18.5305 79.2101H22.9405C23.2442 79.2101 23.4905 78.9638 23.4905 78.6601V74.2501C23.4905 73.9463 23.2442 73.7001 22.9405 73.7001Z" fill="black" fill-opacity="0.7"/>
<path d="M20.7306 74.3201C19.5506 74.3201 18.5906 75.2801 18.5906 76.4601C18.5906 77.6401 19.5506 78.6001 20.7306 78.6001C21.9106 78.6001 22.8706 77.6401 22.8706 76.4601C22.8706 75.2801 21.9106 74.3201 20.7306 74.3201ZM20.7306 77.9901C19.8906 77.9901 19.2006 77.3101 19.2006 76.4601C19.2006 75.6101 19.8806 74.9301 20.7306 74.9301C21.5806 74.9301 22.2606 75.6101 22.2606 76.4601C22.2606 77.3101 21.5806 77.9901 20.7306 77.9901Z" fill="white"/>
<path d="M20.7306 74.3201C19.5506 74.3201 18.5906 75.2801 18.5906 76.4601C18.5906 77.6401 19.5506 78.6001 20.7306 78.6001C21.9106 78.6001 22.8706 77.6401 22.8706 76.4601C22.8706 75.2801 21.9106 74.3201 20.7306 74.3201ZM20.7306 77.9901C19.8906 77.9901 19.2006 77.3101 19.2006 76.4601C19.2006 75.6101 19.8806 74.9301 20.7306 74.9301C21.5806 74.9301 22.2606 75.6101 22.2606 76.4601C22.2606 77.3101 21.5806 77.9901 20.7306 77.9901Z" fill="black" fill-opacity="0.7"/>
<path d="M22.9405 67.28H18.5305C18.2267 67.28 17.9805 67.5263 17.9805 67.83V72.24C17.9805 72.5438 18.2267 72.79 18.5305 72.79H22.9405C23.2442 72.79 23.4905 72.5438 23.4905 72.24V67.83C23.4905 67.5263 23.2442 67.28 22.9405 67.28Z" fill="#FACA1E"/>
<path d="M22.9405 67.28H18.5305C18.2267 67.28 17.9805 67.5263 17.9805 67.83V72.24C17.9805 72.5438 18.2267 72.79 18.5305 72.79H22.9405C23.2442 72.79 23.4905 72.5438 23.4905 72.24V67.83C23.4905 67.5263 23.2442 67.28 22.9405 67.28Z" fill="black" fill-opacity="0.7"/>
<path d="M21.1705 70.0301L22.5905 68.6101C22.7105 68.4901 22.7105 68.3001 22.5905 68.1801C22.4705 68.0601 22.2805 68.0601 22.1605 68.1801L20.7405 69.6001L19.3205 68.1801C19.2005 68.0601 19.0105 68.0601 18.8905 68.1801C18.7705 68.3001 18.7705 68.4901 18.8905 68.6101L20.3105 70.0301L18.8905 71.4501C18.7705 71.5701 18.7705 71.7601 18.8905 71.8801C19.0105 72.0001 19.2005 72.0001 19.3205 71.8801L20.7405 70.4601L22.1605 71.8801C22.2805 72.0001 22.4705 72.0001 22.5905 71.8801C22.7105 71.7601 22.7105 71.5701 22.5905 71.4501L21.1705 70.0301Z" fill="white"/>
<path d="M21.1705 70.0301L22.5905 68.6101C22.7105 68.4901 22.7105 68.3001 22.5905 68.1801C22.4705 68.0601 22.2805 68.0601 22.1605 68.1801L20.7405 69.6001L19.3205 68.1801C19.2005 68.0601 19.0105 68.0601 18.8905 68.1801C18.7705 68.3001 18.7705 68.4901 18.8905 68.6101L20.3105 70.0301L18.8905 71.4501C18.7705 71.5701 18.7705 71.7601 18.8905 71.8801C19.0105 72.0001 19.2005 72.0001 19.3205 71.8801L20.7405 70.4601L22.1605 71.8801C22.2805 72.0001 22.4705 72.0001 22.5905 71.8801C22.7105 71.7601 22.7105 71.5701 22.5905 71.4501L21.1705 70.0301Z" fill="black" fill-opacity="0.7"/>
<path d="M10.0904 67.28H5.68037C5.37662 67.28 5.13037 67.5263 5.13037 67.83V72.24C5.13037 72.5438 5.37662 72.79 5.68037 72.79H10.0904C10.3941 72.79 10.6404 72.5438 10.6404 72.24V67.83C10.6404 67.5263 10.3941 67.28 10.0904 67.28Z" fill="#FACA1E"/>
<path d="M10.0904 67.28H5.68037C5.37662 67.28 5.13037 67.5263 5.13037 67.83V72.24C5.13037 72.5438 5.37662 72.79 5.68037 72.79H10.0904C10.3941 72.79 10.6404 72.5438 10.6404 72.24V67.83C10.6404 67.5263 10.3941 67.28 10.0904 67.28Z" fill="black" fill-opacity="0.7"/>
<path d="M8.32044 70.0301L9.74044 68.6101C9.86044 68.4901 9.86044 68.3001 9.74044 68.1801C9.62044 68.0601 9.43044 68.0601 9.31044 68.1801L7.89044 69.6001L6.47044 68.1801C6.35044 68.0601 6.16044 68.0601 6.04044 68.1801C5.92044 68.3001 5.92044 68.4901 6.04044 68.6101L7.46044 70.0301L6.04044 71.4501C5.92044 71.5701 5.92044 71.7601 6.04044 71.8801C6.16044 72.0001 6.35044 72.0001 6.47044 71.8801L7.89044 70.4601L9.31044 71.8801C9.43044 72.0001 9.62044 72.0001 9.74044 71.8801C9.86044 71.7601 9.86044 71.5701 9.74044 71.4501L8.32044 70.0301Z" fill="white"/>
<path d="M8.32044 70.0301L9.74044 68.6101C9.86044 68.4901 9.86044 68.3001 9.74044 68.1801C9.62044 68.0601 9.43044 68.0601 9.31044 68.1801L7.89044 69.6001L6.47044 68.1801C6.35044 68.0601 6.16044 68.0601 6.04044 68.1801C5.92044 68.3001 5.92044 68.4901 6.04044 68.6101L7.46044 70.0301L6.04044 71.4501C5.92044 71.5701 5.92044 71.7601 6.04044 71.8801C6.16044 72.0001 6.35044 72.0001 6.47044 71.8801L7.89044 70.4601L9.31044 71.8801C9.43044 72.0001 9.62044 72.0001 9.74044 71.8801C9.86044 71.7601 9.86044 71.5701 9.74044 71.4501L8.32044 70.0301Z" fill="black" fill-opacity="0.7"/>
<path d="M10.0904 73.7001H5.68037C5.37662 73.7001 5.13037 73.9463 5.13037 74.2501V78.6601C5.13037 78.9638 5.37662 79.2101 5.68037 79.2101H10.0904C10.3941 79.2101 10.6404 78.9638 10.6404 78.6601V74.2501C10.6404 73.9463 10.3941 73.7001 10.0904 73.7001Z" fill="#FF5538"/>
<path d="M10.0904 73.7001H5.68037C5.37662 73.7001 5.13037 73.9463 5.13037 74.2501V78.6601C5.13037 78.9638 5.37662 79.2101 5.68037 79.2101H10.0904C10.3941 79.2101 10.6404 78.9638 10.6404 78.6601V74.2501C10.6404 73.9463 10.3941 73.7001 10.0904 73.7001Z" fill="black" fill-opacity="0.7"/>
<path d="M7.88048 74.3201C6.70048 74.3201 5.74048 75.2801 5.74048 76.4601C5.74048 77.6401 6.70048 78.6001 7.88048 78.6001C9.06048 78.6001 10.0205 77.6401 10.0205 76.4601C10.0205 75.2801 9.06048 74.3201 7.88048 74.3201ZM7.88048 77.9901C7.04048 77.9901 6.35048 77.3101 6.35048 76.4601C6.35048 75.6101 7.03048 74.9301 7.88048 74.9301C8.73048 74.9301 9.41048 75.6101 9.41048 76.4601C9.41048 77.3101 8.73048 77.9901 7.88048 77.9901Z" fill="white"/>
<path d="M7.88048 74.3201C6.70048 74.3201 5.74048 75.2801 5.74048 76.4601C5.74048 77.6401 6.70048 78.6001 7.88048 78.6001C9.06048 78.6001 10.0205 77.6401 10.0205 76.4601C10.0205 75.2801 9.06048 74.3201 7.88048 74.3201ZM7.88048 77.9901C7.04048 77.9901 6.35048 77.3101 6.35048 76.4601C6.35048 75.6101 7.03048 74.9301 7.88048 74.9301C8.73048 74.9301 9.41048 75.6101 9.41048 76.4601C9.41048 77.3101 8.73048 77.9901 7.88048 77.9901Z" fill="black" fill-opacity="0.7"/>
<path d="M16.5105 73.7001H12.1005C11.7968 73.7001 11.5505 73.9463 11.5505 74.2501V78.6601C11.5505 78.9638 11.7968 79.2101 12.1005 79.2101H16.5105C16.8143 79.2101 17.0605 78.9638 17.0605 78.6601V74.2501C17.0605 73.9463 16.8143 73.7001 16.5105 73.7001Z" fill="#FACA1E"/>
<path d="M16.5105 73.7001H12.1005C11.7968 73.7001 11.5505 73.9463 11.5505 74.2501V78.6601C11.5505 78.9638 11.7968 79.2101 12.1005 79.2101H16.5105C16.8143 79.2101 17.0605 78.9638 17.0605 78.6601V74.2501C17.0605 73.9463 16.8143 73.7001 16.5105 73.7001Z" fill="black" fill-opacity="0.7"/>
<path d="M14.7406 76.46L16.1606 75.04C16.2806 74.92 16.2806 74.73 16.1606 74.61C16.0406 74.49 15.8506 74.49 15.7306 74.61L14.3106 76.03L12.8906 74.61C12.7706 74.49 12.5806 74.49 12.4606 74.61C12.3406 74.73 12.3406 74.92 12.4606 75.04L13.8806 76.46L12.4606 77.88C12.3406 78 12.3406 78.19 12.4606 78.31C12.5806 78.43 12.7706 78.43 12.8906 78.31L14.3106 76.89L15.7306 78.31C15.8506 78.43 16.0406 78.43 16.1606 78.31C16.2806 78.19 16.2806 78 16.1606 77.88L14.7406 76.46Z" fill="white"/>
<path d="M14.7406 76.46L16.1606 75.04C16.2806 74.92 16.2806 74.73 16.1606 74.61C16.0406 74.49 15.8506 74.49 15.7306 74.61L14.3106 76.03L12.8906 74.61C12.7706 74.49 12.5806 74.49 12.4606 74.61C12.3406 74.73 12.3406 74.92 12.4606 75.04L13.8806 76.46L12.4606 77.88C12.3406 78 12.3406 78.19 12.4606 78.31C12.5806 78.43 12.7706 78.43 12.8906 78.31L14.3106 76.89L15.7306 78.31C15.8506 78.43 16.0406 78.43 16.1606 78.31C16.2806 78.19 16.2806 78 16.1606 77.88L14.7406 76.46Z" fill="black" fill-opacity="0.7"/>
<path d="M16.5105 80.1301H12.1005C11.7968 80.1301 11.5505 80.3764 11.5505 80.6801V85.0901C11.5505 85.3939 11.7968 85.6401 12.1005 85.6401H16.5105C16.8143 85.6401 17.0605 85.3939 17.0605 85.0901V80.6801C17.0605 80.3764 16.8143 80.1301 16.5105 80.1301Z" fill="#FF5538"/>
<path d="M16.5105 80.1301H12.1005C11.7968 80.1301 11.5505 80.3764 11.5505 80.6801V85.0901C11.5505 85.3939 11.7968 85.6401 12.1005 85.6401H16.5105C16.8143 85.6401 17.0605 85.3939 17.0605 85.0901V80.6801C17.0605 80.3764 16.8143 80.1301 16.5105 80.1301Z" fill="black" fill-opacity="0.7"/>
<path d="M14.3107 80.7401C13.1307 80.7401 12.1707 81.7001 12.1707 82.8801C12.1707 84.0601 13.1307 85.0201 14.3107 85.0201C15.4907 85.0201 16.4507 84.0601 16.4507 82.8801C16.4507 81.7001 15.4907 80.7401 14.3107 80.7401ZM14.3107 84.4101C13.4707 84.4101 12.7807 83.7301 12.7807 82.8801C12.7807 82.0301 13.4607 81.3501 14.3107 81.3501C15.1607 81.3501 15.8407 82.0301 15.8407 82.8801C15.8407 83.7301 15.1607 84.4101 14.3107 84.4101Z" fill="white"/>
<path d="M14.3107 80.7401C13.1307 80.7401 12.1707 81.7001 12.1707 82.8801C12.1707 84.0601 13.1307 85.0201 14.3107 85.0201C15.4907 85.0201 16.4507 84.0601 16.4507 82.8801C16.4507 81.7001 15.4907 80.7401 14.3107 80.7401ZM14.3107 84.4101C13.4707 84.4101 12.7807 83.7301 12.7807 82.8801C12.7807 82.0301 13.4607 81.3501 14.3107 81.3501C15.1607 81.3501 15.8407 82.0301 15.8407 82.8801C15.8407 83.7301 15.1607 84.4101 14.3107 84.4101Z" fill="black" fill-opacity="0.7"/>
<path d="M22.9405 80.1301H18.5305C18.2267 80.1301 17.9805 80.3764 17.9805 80.6801V85.0901C17.9805 85.3939 18.2267 85.6401 18.5305 85.6401H22.9405C23.2442 85.6401 23.4905 85.3939 23.4905 85.0901V80.6801C23.4905 80.3764 23.2442 80.1301 22.9405 80.1301Z" fill="#FF5538"/>
<path d="M22.9405 80.1301H18.5305C18.2267 80.1301 17.9805 80.3764 17.9805 80.6801V85.0901C17.9805 85.3939 18.2267 85.6401 18.5305 85.6401H22.9405C23.2442 85.6401 23.4905 85.3939 23.4905 85.0901V80.6801C23.4905 80.3764 23.2442 80.1301 22.9405 80.1301Z" fill="black" fill-opacity="0.7"/>
<path d="M20.7306 80.7401C19.5506 80.7401 18.5906 81.7001 18.5906 82.8801C18.5906 84.0601 19.5506 85.0201 20.7306 85.0201C21.9106 85.0201 22.8706 84.0601 22.8706 82.8801C22.8706 81.7001 21.9106 80.7401 20.7306 80.7401ZM20.7306 84.4101C19.8906 84.4101 19.2006 83.7301 19.2006 82.8801C19.2006 82.0301 19.8806 81.3501 20.7306 81.3501C21.5806 81.3501 22.2606 82.0301 22.2606 82.8801C22.2606 83.7301 21.5806 84.4101 20.7306 84.4101Z" fill="white"/>
<path d="M20.7306 80.7401C19.5506 80.7401 18.5906 81.7001 18.5906 82.8801C18.5906 84.0601 19.5506 85.0201 20.7306 85.0201C21.9106 85.0201 22.8706 84.0601 22.8706 82.8801C22.8706 81.7001 21.9106 80.7401 20.7306 80.7401ZM20.7306 84.4101C19.8906 84.4101 19.2006 83.7301 19.2006 82.8801C19.2006 82.0301 19.8806 81.3501 20.7306 81.3501C21.5806 81.3501 22.2606 82.0301 22.2606 82.8801C22.2606 83.7301 21.5806 84.4101 20.7306 84.4101Z" fill="black" fill-opacity="0.7"/>
<path d="M10.0904 80.1301H5.68037C5.37662 80.1301 5.13037 80.3764 5.13037 80.6801V85.0901C5.13037 85.3939 5.37662 85.6401 5.68037 85.6401H10.0904C10.3941 85.6401 10.6404 85.3939 10.6404 85.0901V80.6801C10.6404 80.3764 10.3941 80.1301 10.0904 80.1301Z" fill="#FACA1E"/>
<path d="M10.0904 80.1301H5.68037C5.37662 80.1301 5.13037 80.3764 5.13037 80.6801V85.0901C5.13037 85.3939 5.37662 85.6401 5.68037 85.6401H10.0904C10.3941 85.6401 10.6404 85.3939 10.6404 85.0901V80.6801C10.6404 80.3764 10.3941 80.1301 10.0904 80.1301Z" fill="black" fill-opacity="0.7"/>
<path d="M8.32044 82.8802L9.74044 81.4602C9.86044 81.3402 9.86044 81.1502 9.74044 81.0302C9.62044 80.9102 9.43044 80.9102 9.31044 81.0302L7.89044 82.4502L6.47044 81.0302C6.35044 80.9102 6.16044 80.9102 6.04044 81.0302C5.92044 81.1502 5.92044 81.3402 6.04044 81.4602L7.46044 82.8802L6.04044 84.3002C5.92044 84.4202 5.92044 84.6102 6.04044 84.7302C6.16044 84.8502 6.35044 84.8502 6.47044 84.7302L7.89044 83.3102L9.31044 84.7302C9.43044 84.8502 9.62044 84.8502 9.74044 84.7302C9.86044 84.6102 9.86044 84.4202 9.74044 84.3002L8.32044 82.8802Z" fill="white"/>
<path d="M8.32044 82.8802L9.74044 81.4602C9.86044 81.3402 9.86044 81.1502 9.74044 81.0302C9.62044 80.9102 9.43044 80.9102 9.31044 81.0302L7.89044 82.4502L6.47044 81.0302C6.35044 80.9102 6.16044 80.9102 6.04044 81.0302C5.92044 81.1502 5.92044 81.3402 6.04044 81.4602L7.46044 82.8802L6.04044 84.3002C5.92044 84.4202 5.92044 84.6102 6.04044 84.7302C6.16044 84.8502 6.35044 84.8502 6.47044 84.7302L7.89044 83.3102L9.31044 84.7302C9.43044 84.8502 9.62044 84.8502 9.74044 84.7302C9.86044 84.6102 9.86044 84.4202 9.74044 84.3002L8.32044 82.8802Z" fill="black" fill-opacity="0.7"/>
</svg>
