<svg width="206" height="187" viewBox="0 0 206 187" fill="none" xmlns="http://www.w3.org/2000/svg">
<path d="M9.1698 187H26.9966V8.87705C26.9966 3.92919 22.9947 0 18.1196 0C13.1717 0 9.24256 4.00196 9.24256 8.87705V187H9.1698Z" fill="#B09069"/>
<path d="M178.343 8.87705V187H196.17V8.87705C196.17 3.92919 192.168 0 187.293 0C182.345 0 178.416 4.00196 178.416 8.87705H178.343Z" fill="#B09069"/>
<path d="M198.426 91.3173H6.91438C3.20348 91.3173 0.220215 88.334 0.220215 84.6231C0.220215 80.9122 3.20348 77.929 6.91438 77.929H198.426C202.137 77.929 205.12 80.9122 205.12 84.6231C205.12 88.334 202.137 91.3173 198.426 91.3173Z" fill="url(#paint0_linear_2871_208206)"/>
<path d="M154.119 15H49.2936C42.0733 15 36.2201 21.1785 36.2201 28.7999V139.449C36.2201 147.071 42.0733 153.249 49.2936 153.249H154.119C161.34 153.249 167.193 147.071 167.193 139.449V28.7999C167.193 21.1785 161.34 15 154.119 15Z" fill="url(#paint1_linear_2871_208206)"/>
<defs>
<linearGradient id="paint0_linear_2871_208206" x1="102.67" y1="77.929" x2="102.67" y2="91.3173" gradientUnits="userSpaceOnUse">
<stop stop-color="#876B5C"/>
<stop offset="1" stop-color="#5F4B40"/>
</linearGradient>
<linearGradient id="paint1_linear_2871_208206" x1="101.706" y1="15" x2="101.706" y2="153.249" gradientUnits="userSpaceOnUse">
<stop stop-color="#FF5538"/>
<stop offset="1" stop-color="#D52406"/>
</linearGradient>
</defs>
</svg>
