<svg width="96" height="95" viewBox="0 0 96 95" fill="none" xmlns="http://www.w3.org/2000/svg">
<g filter="url(#filter0_d_2829_211767)">
<path d="M43.6912 50.4589C39.2249 71.9395 52.9669 92.3136 52.9669 92.3136L67.3707 23.2995C61.4447 27.2341 48.1574 28.9784 43.635 50.4894L43.6912 50.4589Z" fill="#95C133"/>
<path d="M78.2955 56.7508C73.8292 78.2314 52.9656 91.7095 52.9656 91.7095L67.3694 22.6953C71.2204 28.5882 82.7618 35.2702 78.2955 56.7508Z" fill="#AADA40"/>
</g>
<g filter="url(#filter1_d_2829_211767)">
<path d="M31.3351 17.2772C10.8472 25.1264 1.12941 47.6987 1.12941 47.6987L66.9834 22.526C60.4706 19.6658 51.8229 9.42799 31.2791 17.2464L31.3351 17.2772Z" fill="#95C133"/>
<path d="M44.7401 49.7943C24.2523 57.6435 1.63747 47.3712 1.63747 47.3712L67.4915 22.1985C64.614 28.6232 65.228 41.9451 44.7401 49.7943Z" fill="#AADA40"/>
</g>
<defs>
<filter id="filter0_d_2829_211767" x="41.7983" y="22.6953" width="38.5088" height="71.6182" filterUnits="userSpaceOnUse" color-interpolation-filters="sRGB">
<feFlood flood-opacity="0" result="BackgroundImageFix"/>
<feColorMatrix in="SourceAlpha" type="matrix" values="0 0 0 0 0 0 0 0 0 0 0 0 0 0 0 0 0 0 127 0" result="hardAlpha"/>
<feOffset dy="1"/>
<feGaussianBlur stdDeviation="0.5"/>
<feComposite in2="hardAlpha" operator="out"/>
<feColorMatrix type="matrix" values="0 0 0 0 0 0 0 0 0 0 0 0 0 0 0 0 0 0 0.25 0"/>
<feBlend mode="normal" in2="BackgroundImageFix" result="effect1_dropShadow_2829_211767"/>
<feBlend mode="normal" in="SourceGraphic" in2="effect1_dropShadow_2829_211767" result="shape"/>
</filter>
<filter id="filter1_d_2829_211767" x="0.129395" y="14.3613" width="68.3621" height="40.3879" filterUnits="userSpaceOnUse" color-interpolation-filters="sRGB">
<feFlood flood-opacity="0" result="BackgroundImageFix"/>
<feColorMatrix in="SourceAlpha" type="matrix" values="0 0 0 0 0 0 0 0 0 0 0 0 0 0 0 0 0 0 127 0" result="hardAlpha"/>
<feOffset dy="1"/>
<feGaussianBlur stdDeviation="0.5"/>
<feComposite in2="hardAlpha" operator="out"/>
<feColorMatrix type="matrix" values="0 0 0 0 0 0 0 0 0 0 0 0 0 0 0 0 0 0 0.25 0"/>
<feBlend mode="normal" in2="BackgroundImageFix" result="effect1_dropShadow_2829_211767"/>
<feBlend mode="normal" in="SourceGraphic" in2="effect1_dropShadow_2829_211767" result="shape"/>
</filter>
</defs>
</svg>
