<svg width="147" height="73" viewBox="0 0 147 73" fill="none" xmlns="http://www.w3.org/2000/svg">
<path d="M11.28 40.9598H7.05005V60.7798H11.28V40.9598Z" fill="#876B5C"/>
<path d="M18.33 52.2399H0L9.16003 22.5299L18.33 52.2399Z" fill="#80A62C"/>
<path d="M16.7501 40.1798H1.58008L9.16016 15.5898L16.7501 40.1798Z" fill="#80A62C"/>
<path d="M14.9299 28.0098H3.3999L9.15991 9.32983L14.9299 28.0098Z" fill="#80A62C"/>
<path d="M13.2501 17.6299H5.08008L9.16016 4.37988L13.2501 17.6299Z" fill="#80A62C"/>
<path d="M100.09 44.3999C104.956 44.3999 108.9 40.4555 108.9 35.5899C108.9 30.7243 104.956 26.7799 100.09 26.7799C95.2246 26.7799 91.2803 30.7243 91.2803 35.5899C91.2803 40.4555 95.2246 44.3999 100.09 44.3999Z" fill="#95C133"/>
<path d="M87.1704 45.8099C92.036 45.8099 95.9803 41.8656 95.9803 36.9999C95.9803 32.1343 92.036 28.1899 87.1704 28.1899C82.3048 28.1899 78.3604 32.1343 78.3604 36.9999C78.3604 41.8656 82.3048 45.8099 87.1704 45.8099Z" fill="#95C133"/>
<path d="M93.6105 32.7699C97.5041 32.7699 100.661 29.6135 100.661 25.7199C100.661 21.8263 97.5041 18.6699 93.6105 18.6699C89.7169 18.6699 86.5605 21.8263 86.5605 25.7199C86.5605 29.6135 89.7169 32.7699 93.6105 32.7699Z" fill="#95C133"/>
<path d="M95.8602 48.2799C98.9751 48.2799 101.5 45.7548 101.5 42.6399C101.5 39.525 98.9751 36.9999 95.8602 36.9999C92.7453 36.9999 90.2202 39.525 90.2202 42.6399C90.2202 45.7548 92.7453 48.2799 95.8602 48.2799Z" fill="#95C133"/>
<path d="M93.6104 32.23L95.3704 53.92H91.8403L93.6104 32.23Z" fill="#B09069"/>
<path d="M76.7898 44.3999C81.6554 44.3999 85.5997 40.4555 85.5997 35.5899C85.5997 30.7243 81.6554 26.7799 76.7898 26.7799C71.9242 26.7799 67.9797 30.7243 67.9797 35.5899C67.9797 40.4555 71.9242 44.3999 76.7898 44.3999Z" fill="#95C133"/>
<path d="M63.8597 45.8099C68.7254 45.8099 72.6698 41.8656 72.6698 36.9999C72.6698 32.1343 68.7254 28.1899 63.8597 28.1899C58.9941 28.1899 55.0498 32.1343 55.0498 36.9999C55.0498 41.8656 58.9941 45.8099 63.8597 45.8099Z" fill="#95C133"/>
<path d="M70.2998 32.7699C74.1934 32.7699 77.3497 29.6135 77.3497 25.7199C77.3497 21.8263 74.1934 18.6699 70.2998 18.6699C66.4062 18.6699 63.2498 21.8263 63.2498 25.7199C63.2498 29.6135 66.4062 32.7699 70.2998 32.7699Z" fill="#95C133"/>
<path d="M72.5599 48.2799C75.6748 48.2799 78.1998 45.7548 78.1998 42.6399C78.1998 39.525 75.6748 36.9999 72.5599 36.9999C69.4451 36.9999 66.9199 39.525 66.9199 42.6399C66.9199 45.7548 69.4451 48.2799 72.5599 48.2799Z" fill="#95C133"/>
<path d="M70.2998 32.23L72.0598 53.92H68.5398L70.2998 32.23Z" fill="#B09069"/>
<path d="M138.1 46.29H132.81V71.06H138.1V46.29Z" fill="#876B5C"/>
<path d="M146.91 60.39H124L135.45 23.25L146.91 60.39Z" fill="#80A62C"/>
<path d="M144.94 45.3101H125.97L135.45 14.5801L144.94 45.3101Z" fill="#80A62C"/>
<path d="M142.66 30.1H128.25L135.45 6.75L142.66 30.1Z" fill="#80A62C"/>
<path d="M140.57 17.1301H130.34L135.45 0.560059L140.57 17.1301Z" fill="#80A62C"/>
<path d="M20.2196 36.1798C20.5296 33.7298 22.6096 31.8898 25.0796 31.8898H58.0497C60.5197 31.8898 62.5997 33.7298 62.9097 36.1798L67.2697 71.0598H69.7396L69.6996 70.7598L65.3396 35.8798C64.8796 32.2098 61.7497 29.4498 58.0497 29.4498H25.0796C21.3796 29.4498 18.2497 32.2198 17.7897 35.8798L13.4297 70.7598L13.3896 71.0598H15.8596L20.2196 36.1798Z" fill="#A1A1A1"/>
<path d="M47.7897 28.8399C47.5497 28.8799 47.3796 29.1099 47.3796 29.3499V63.8399C47.3796 64.1099 47.5996 64.3299 47.8696 64.3299C48.1396 64.3299 48.3596 64.1099 48.3596 63.8399V29.3199C48.3596 29.0199 48.0897 28.7899 47.7897 28.8399Z" fill="#636363"/>
<path d="M57.2097 28.8399C56.9697 28.8799 56.7998 29.1099 56.7998 29.3499V63.8399C56.7998 64.1099 57.0198 64.3299 57.2898 64.3299C57.5598 64.3299 57.7798 64.1099 57.7798 63.8399V29.3199C57.7798 29.0199 57.5097 28.7899 57.2097 28.8399Z" fill="#636363"/>
<path d="M25.7596 28.8399C25.5196 28.8799 25.3496 29.1099 25.3496 29.3499V63.8399C25.3496 64.1099 25.5696 64.3299 25.8396 64.3299C26.1096 64.3299 26.3296 64.1099 26.3296 63.8399V29.3199C26.3296 29.0199 26.0596 28.7899 25.7596 28.8399Z" fill="#636363"/>
<path d="M35.1796 28.8399C34.9396 28.8799 34.7695 29.1099 34.7695 29.3499V63.8399C34.7695 64.1099 34.9895 64.3299 35.2595 64.3299C35.5295 64.3299 35.7495 64.1099 35.7495 63.8399V29.3199C35.7495 29.0199 35.4796 28.7899 35.1796 28.8399Z" fill="#636363"/>
<path d="M58.6995 61.2699H46.4595V63.7199H58.6995V61.2699Z" fill="#5B70C7"/>
<path d="M36.6697 61.2699H24.4297V63.7199H36.6697V61.2699Z" fill="#FF5538"/>
<path d="M115.24 59.2502C115.24 59.2502 115.549 56.2402 117.949 56.2402C120.349 56.2402 121.01 58.6002 120.3 59.6902C119.64 60.7102 119.85 62.3702 121.14 62.1402C121.14 62.1402 120.969 62.9802 119.719 62.9802C118.739 62.9802 118.099 61.9802 118.099 61.0502C118.099 59.7102 118.069 58.9102 117.339 58.9102C116.609 58.9102 116.43 59.7702 116.43 59.7702L115.229 59.2402L115.24 59.2502Z" fill="#FF5538"/>
<path d="M111.389 57.1103C109.429 58.0503 108.29 56.4203 108.29 52.1703C108.29 50.2003 106.659 48.6203 104.089 48.6203C101.809 48.6203 99.6795 50.0503 99.2195 47.8003C97.7595 49.0003 98.1795 51.9603 100.009 51.9603C101.529 51.9603 102.379 50.5103 103.629 50.5103C105.119 50.5103 106.41 51.6203 106.41 53.3303C106.41 56.2303 105.76 58.2703 109.41 58.2703C110.5 58.2703 111.4 57.7903 111.4 57.1003L111.389 57.1103Z" fill="#FF5538"/>
<path d="M113.979 58.2803H109.289C107.439 58.2803 106.729 56.9403 106.729 54.9203C106.729 53.3503 106.749 50.2703 103.249 50.2703C101.159 50.2703 101.039 51.8003 99.1993 52.6503C98.6293 52.9203 98.0593 52.6703 97.3793 53.2303C96.3593 54.0603 96.3793 55.8903 97.7393 56.7903C98.5593 57.3303 99.3793 56.9503 100.229 56.7903H102.839C102.839 56.7903 103.029 62.1303 103.879 63.6803C105.199 64.4903 107.419 65.3303 110.459 65.3303C113.749 65.3303 116.149 64.5703 117.069 63.6603C117.399 61.7103 116.809 58.2903 113.969 58.2903L113.979 58.2803Z" fill="white"/>
<path d="M113.819 63.7803L115.869 61.5103L119.249 67.1702L117.719 68.4803L113.819 63.7803Z" fill="white"/>
<path d="M111.689 64.9403L113.449 63.5103L116.669 69.2103L115.319 70.3203L111.689 64.9403Z" fill="white"/>
<path d="M107.089 63.7803L105.039 61.5103L101.659 67.1702L103.189 68.4803L107.089 63.7803Z" fill="white"/>
<path d="M109.109 64.9403L107.349 63.5103L104.129 69.2103L105.469 70.3203L109.109 64.9403Z" fill="white"/>
<path d="M110.46 72.2802C103.1 72.2802 100.48 67.9802 100.37 67.8002C100.14 67.4102 100.27 66.9102 100.66 66.6802C101.05 66.4502 101.55 66.5802 101.78 66.9702C101.87 67.1202 104.08 70.6502 110.46 70.6502C116.84 70.6502 119.12 67.0102 119.14 66.9702C119.37 66.5802 119.87 66.4502 120.26 66.6802C120.65 66.9102 120.78 67.4102 120.55 67.8002C120.44 67.9802 117.82 72.2802 110.46 72.2802Z" fill="#FF5538"/>
<path d="M103.219 53.0303C103.219 53.4803 102.849 53.8503 102.399 53.8503C101.949 53.8503 101.579 53.4803 101.579 53.0303C101.579 52.5803 101.949 52.2103 102.399 52.2103C102.849 52.2103 103.219 52.5803 103.219 53.0303Z" fill="#636363"/>
<path d="M106.759 50.7304C106.239 51.2604 105.489 51.3604 105.079 50.9404C104.669 50.5204 104.76 49.7503 105.28 49.2104C105.8 48.6804 107.329 48.6104 107.329 48.6104C107.329 48.6104 107.269 50.1904 106.749 50.7204L106.759 50.7304Z" fill="white"/>
<path d="M88.3098 59.2502C88.3098 59.2502 88.6198 56.2402 91.0198 56.2402C93.4198 56.2402 94.0798 58.6002 93.3698 59.6902C92.7098 60.7102 92.9197 62.3702 94.2097 62.1402C94.2097 62.1402 94.0398 62.9802 92.7898 62.9802C91.8098 62.9802 91.1698 61.9802 91.1698 61.0502C91.1698 59.7102 91.1398 58.9102 90.4098 58.9102C89.6798 58.9102 89.4998 59.7702 89.4998 59.7702L88.2998 59.2402L88.3098 59.2502Z" fill="#FF5538"/>
<path d="M84.4597 57.1103C82.4997 58.0503 81.3598 56.4203 81.3598 52.1703C81.3598 50.2003 79.7298 48.6203 77.1598 48.6203C74.8798 48.6203 72.7498 50.0503 72.2898 47.8003C70.8298 49.0003 71.2497 51.9603 73.0797 51.9603C74.5997 51.9603 75.4497 50.5103 76.6997 50.5103C78.1897 50.5103 79.4798 51.6203 79.4798 53.3303C79.4798 56.2303 78.8298 58.2703 82.4798 58.2703C83.5698 58.2703 84.4697 57.7903 84.4697 57.1003L84.4597 57.1103Z" fill="#FF5538"/>
<path d="M87.0497 58.2803H82.3596C80.5096 58.2803 79.7997 56.9403 79.7997 54.9203C79.7997 53.3503 79.8196 50.2703 76.3196 50.2703C74.2296 50.2703 74.1097 51.8003 72.2697 52.6503C71.6997 52.9203 71.1296 52.6703 70.4496 53.2303C69.4296 54.0603 69.4497 55.8903 70.8097 56.7903C71.6297 57.3303 72.4497 56.9503 73.2997 56.7903H75.9097C75.9097 56.7903 76.0996 62.1303 76.9496 63.6803C78.2696 64.4903 80.4897 65.3303 83.5297 65.3303C86.8197 65.3303 89.2197 64.5703 90.1397 63.6603C90.4697 61.7103 89.8797 58.2903 87.0397 58.2903L87.0497 58.2803Z" fill="#FFCA1E"/>
<path d="M86.8896 63.7803L88.9397 61.5103L92.3196 67.1702L90.7897 68.4803L86.8896 63.7803Z" fill="#FFCA1E"/>
<path d="M84.7598 64.9403L86.5198 63.5103L89.7397 69.2103L88.3998 70.3203L84.7598 64.9403Z" fill="#FFCA1E"/>
<path d="M80.1598 63.7803L78.1198 61.5103L74.7397 67.1702L76.2698 68.4803L80.1598 63.7803Z" fill="#FFCA1E"/>
<path d="M82.1898 64.9403L80.4198 63.5103L77.2097 69.2103L78.5498 70.3203L82.1898 64.9403Z" fill="#FFCA1E"/>
<path d="M83.5296 72.2802C76.1696 72.2802 73.5497 67.9802 73.4397 67.8002C73.2097 67.4102 73.3396 66.9102 73.7296 66.6802C74.1196 66.4502 74.6196 66.5802 74.8496 66.9702C74.9396 67.1202 77.1496 70.6502 83.5296 70.6502C89.9096 70.6502 92.1896 67.0102 92.2096 66.9702C92.4396 66.5802 92.9395 66.4502 93.3295 66.6802C93.7195 66.9102 93.8496 67.4102 93.6196 67.8002C93.5096 67.9802 90.8896 72.2802 83.5296 72.2802Z" fill="#FF5538"/>
<path d="M76.2897 53.0303C76.2897 53.4803 75.9196 53.8503 75.4696 53.8503C75.0196 53.8503 74.6497 53.4803 74.6497 53.0303C74.6497 52.5803 75.0196 52.2103 75.4696 52.2103C75.9196 52.2103 76.2897 52.5803 76.2897 53.0303Z" fill="#636363"/>
<path d="M79.8297 50.7304C79.3097 51.2604 78.5598 51.3604 78.1498 50.9404C77.7398 50.5204 77.8297 49.7503 78.3497 49.2104C78.8697 48.6804 80.3998 48.6104 80.3998 48.6104C80.3998 48.6104 80.3397 50.1904 79.8197 50.7204L79.8297 50.7304Z" fill="#FFCA1E"/>
</svg>
